<mxfile host="app.diagrams.net" modified="2020-11-24T00:35:19.749Z" agent="5.0 (Windows NT 10.0; Win64; x64) AppleWebKit/537.36 (KHTML, like Gecko) Chrome/87.0.4280.66 Safari/537.36" etag="iWTEezH5FfDJE3X0ZrPY" version="13.10.1" type="github">
  <diagram id="xW9Y31SaYgmBZkQTsoL8" name="Page-1">
    <mxGraphModel dx="1822" dy="762" grid="0" gridSize="10" guides="1" tooltips="1" connect="1" arrows="1" fold="1" page="0" pageScale="1" pageWidth="827" pageHeight="1169" math="0" shadow="0">
      <root>
        <mxCell id="0" />
        <mxCell id="1" parent="0" />
        <mxCell id="jA1Smjy7X45bf1YUAU8x-54" value="" style="rounded=0;whiteSpace=wrap;html=1;fillColor=#f5f5f5;strokeColor=#666666;fontColor=#333333;" parent="1" vertex="1">
          <mxGeometry x="195" y="2957" width="714" height="256" as="geometry" />
        </mxCell>
        <mxCell id="jA1Smjy7X45bf1YUAU8x-45" value="" style="rounded=0;whiteSpace=wrap;html=1;fillColor=#f5f5f5;strokeColor=#666666;fontColor=#333333;" parent="1" vertex="1">
          <mxGeometry x="-306" y="2971" width="459" height="233" as="geometry" />
        </mxCell>
        <mxCell id="3oE3Q5OzXbJSzto1YcGy-170" value="" style="rounded=0;whiteSpace=wrap;html=1;shadow=0;" parent="1" vertex="1">
          <mxGeometry x="-200" y="942" width="1201" height="122" as="geometry" />
        </mxCell>
        <mxCell id="3oE3Q5OzXbJSzto1YcGy-167" value="" style="rounded=0;whiteSpace=wrap;html=1;shadow=0;fillColor=#eeeeee;strokeColor=#36393d;" parent="1" vertex="1">
          <mxGeometry x="-197" y="271" width="1196" height="653" as="geometry" />
        </mxCell>
        <mxCell id="3oE3Q5OzXbJSzto1YcGy-137" value="" style="rounded=0;whiteSpace=wrap;html=1;shadow=0;fillColor=#eeeeee;strokeColor=#36393d;" parent="1" vertex="1">
          <mxGeometry x="-200" y="1591" width="666" height="157" as="geometry" />
        </mxCell>
        <mxCell id="3oE3Q5OzXbJSzto1YcGy-130" value="" style="rounded=0;whiteSpace=wrap;html=1;shadow=0;fillColor=#eeeeee;strokeColor=#36393d;" parent="1" vertex="1">
          <mxGeometry x="-201" y="1283" width="666" height="303" as="geometry" />
        </mxCell>
        <mxCell id="KpU182EsacGevF96RamK-19" value="" style="shape=table;html=1;whiteSpace=wrap;startSize=0;container=1;collapsible=0;childLayout=tableLayout;fillColor=#ffe6cc;strokeColor=#d79b00;" parent="1" vertex="1">
          <mxGeometry x="410" y="425" width="480" height="40" as="geometry" />
        </mxCell>
        <mxCell id="KpU182EsacGevF96RamK-20" value="" style="shape=partialRectangle;html=1;whiteSpace=wrap;collapsible=0;dropTarget=0;pointerEvents=0;fillColor=none;top=0;left=0;bottom=0;right=0;points=[[0,0.5],[1,0.5]];portConstraint=eastwest;" parent="KpU182EsacGevF96RamK-19" vertex="1">
          <mxGeometry width="480" height="40" as="geometry" />
        </mxCell>
        <mxCell id="KpU182EsacGevF96RamK-21" value="" style="shape=partialRectangle;html=1;whiteSpace=wrap;connectable=0;overflow=hidden;fillColor=none;top=0;left=0;bottom=0;right=0;" parent="KpU182EsacGevF96RamK-20" vertex="1">
          <mxGeometry width="60" height="40" as="geometry" />
        </mxCell>
        <mxCell id="KpU182EsacGevF96RamK-22" value="" style="shape=partialRectangle;html=1;whiteSpace=wrap;connectable=0;overflow=hidden;fillColor=none;top=0;left=0;bottom=0;right=0;" parent="KpU182EsacGevF96RamK-20" vertex="1">
          <mxGeometry x="60" width="60" height="40" as="geometry" />
        </mxCell>
        <mxCell id="KpU182EsacGevF96RamK-23" value="&lt;span&gt;0x0020&lt;/span&gt;" style="shape=partialRectangle;html=1;whiteSpace=wrap;connectable=0;overflow=hidden;fillColor=none;top=0;left=0;bottom=0;right=0;" parent="KpU182EsacGevF96RamK-20" vertex="1">
          <mxGeometry x="120" width="60" height="40" as="geometry" />
        </mxCell>
        <mxCell id="KpU182EsacGevF96RamK-24" value="&lt;span&gt;0x0010&lt;/span&gt;" style="shape=partialRectangle;html=1;whiteSpace=wrap;connectable=0;overflow=hidden;fillColor=none;top=0;left=0;bottom=0;right=0;" parent="KpU182EsacGevF96RamK-20" vertex="1">
          <mxGeometry x="180" width="60" height="40" as="geometry" />
        </mxCell>
        <mxCell id="KpU182EsacGevF96RamK-25" value="" style="shape=partialRectangle;html=1;whiteSpace=wrap;connectable=0;overflow=hidden;fillColor=none;top=0;left=0;bottom=0;right=0;" parent="KpU182EsacGevF96RamK-20" vertex="1">
          <mxGeometry x="240" width="60" height="40" as="geometry" />
        </mxCell>
        <mxCell id="KpU182EsacGevF96RamK-26" value="" style="shape=partialRectangle;html=1;whiteSpace=wrap;connectable=0;overflow=hidden;fillColor=none;top=0;left=0;bottom=0;right=0;" parent="KpU182EsacGevF96RamK-20" vertex="1">
          <mxGeometry x="300" width="60" height="40" as="geometry" />
        </mxCell>
        <mxCell id="KpU182EsacGevF96RamK-27" value="" style="shape=partialRectangle;html=1;whiteSpace=wrap;connectable=0;overflow=hidden;fillColor=none;top=0;left=0;bottom=0;right=0;" parent="KpU182EsacGevF96RamK-20" vertex="1">
          <mxGeometry x="360" width="60" height="40" as="geometry" />
        </mxCell>
        <mxCell id="KpU182EsacGevF96RamK-28" value="&lt;span&gt;0x0001&lt;/span&gt;" style="shape=partialRectangle;html=1;whiteSpace=wrap;connectable=0;overflow=hidden;fillColor=none;top=0;left=0;bottom=0;right=0;" parent="KpU182EsacGevF96RamK-20" vertex="1">
          <mxGeometry x="420" width="60" height="40" as="geometry" />
        </mxCell>
        <mxCell id="KpU182EsacGevF96RamK-29" value="" style="shape=table;html=1;whiteSpace=wrap;startSize=0;container=1;collapsible=0;childLayout=tableLayout;fillColor=#dae8fc;strokeColor=#6c8ebf;" parent="1" vertex="1">
          <mxGeometry x="-70" y="425" width="480" height="40" as="geometry" />
        </mxCell>
        <mxCell id="KpU182EsacGevF96RamK-30" value="" style="shape=partialRectangle;html=1;whiteSpace=wrap;collapsible=0;dropTarget=0;pointerEvents=0;fillColor=none;top=0;left=0;bottom=0;right=0;points=[[0,0.5],[1,0.5]];portConstraint=eastwest;" parent="KpU182EsacGevF96RamK-29" vertex="1">
          <mxGeometry width="480" height="40" as="geometry" />
        </mxCell>
        <mxCell id="KpU182EsacGevF96RamK-31" value="&lt;span&gt;0x8000&lt;/span&gt;" style="shape=partialRectangle;html=1;whiteSpace=wrap;connectable=0;overflow=hidden;fillColor=none;top=0;left=0;bottom=0;right=0;" parent="KpU182EsacGevF96RamK-30" vertex="1">
          <mxGeometry width="60" height="40" as="geometry" />
        </mxCell>
        <mxCell id="KpU182EsacGevF96RamK-32" value="&lt;span&gt;0x4000&lt;/span&gt;" style="shape=partialRectangle;html=1;whiteSpace=wrap;connectable=0;overflow=hidden;fillColor=none;top=0;left=0;bottom=0;right=0;" parent="KpU182EsacGevF96RamK-30" vertex="1">
          <mxGeometry x="60" width="60" height="40" as="geometry" />
        </mxCell>
        <mxCell id="KpU182EsacGevF96RamK-33" value="&lt;span&gt;0x2000&lt;/span&gt;" style="shape=partialRectangle;html=1;whiteSpace=wrap;connectable=0;overflow=hidden;fillColor=none;top=0;left=0;bottom=0;right=0;" parent="KpU182EsacGevF96RamK-30" vertex="1">
          <mxGeometry x="120" width="60" height="40" as="geometry" />
        </mxCell>
        <mxCell id="KpU182EsacGevF96RamK-34" value="&lt;span&gt;0x1000&lt;/span&gt;" style="shape=partialRectangle;html=1;whiteSpace=wrap;connectable=0;overflow=hidden;fillColor=none;top=0;left=0;bottom=0;right=0;" parent="KpU182EsacGevF96RamK-30" vertex="1">
          <mxGeometry x="180" width="60" height="40" as="geometry" />
        </mxCell>
        <mxCell id="KpU182EsacGevF96RamK-35" value="" style="shape=partialRectangle;html=1;whiteSpace=wrap;connectable=0;overflow=hidden;fillColor=none;top=0;left=0;bottom=0;right=0;" parent="KpU182EsacGevF96RamK-30" vertex="1">
          <mxGeometry x="240" width="60" height="40" as="geometry" />
        </mxCell>
        <mxCell id="KpU182EsacGevF96RamK-36" value="&lt;span&gt;0x0400&lt;/span&gt;" style="shape=partialRectangle;html=1;whiteSpace=wrap;connectable=0;overflow=hidden;fillColor=none;top=0;left=0;bottom=0;right=0;" parent="KpU182EsacGevF96RamK-30" vertex="1">
          <mxGeometry x="300" width="60" height="40" as="geometry" />
        </mxCell>
        <mxCell id="KpU182EsacGevF96RamK-37" value="&lt;span&gt;0x0200&lt;/span&gt;" style="shape=partialRectangle;html=1;whiteSpace=wrap;connectable=0;overflow=hidden;fillColor=none;top=0;left=0;bottom=0;right=0;" parent="KpU182EsacGevF96RamK-30" vertex="1">
          <mxGeometry x="360" width="60" height="40" as="geometry" />
        </mxCell>
        <mxCell id="KpU182EsacGevF96RamK-38" value="" style="shape=partialRectangle;html=1;whiteSpace=wrap;connectable=0;overflow=hidden;fillColor=none;top=0;left=0;bottom=0;right=0;" parent="KpU182EsacGevF96RamK-30" vertex="1">
          <mxGeometry x="420" width="60" height="40" as="geometry" />
        </mxCell>
        <mxCell id="KpU182EsacGevF96RamK-40" value="1" style="text;html=1;align=center;verticalAlign=middle;resizable=0;points=[];autosize=1;" parent="1" vertex="1">
          <mxGeometry x="-54" y="387" width="17" height="18" as="geometry" />
        </mxCell>
        <mxCell id="KpU182EsacGevF96RamK-41" value="2" style="text;html=1;align=center;verticalAlign=middle;resizable=0;points=[];autosize=1;" parent="1" vertex="1">
          <mxGeometry x="7" y="387" width="17" height="18" as="geometry" />
        </mxCell>
        <mxCell id="KpU182EsacGevF96RamK-42" value="3" style="text;html=1;align=center;verticalAlign=middle;resizable=0;points=[];autosize=1;" parent="1" vertex="1">
          <mxGeometry x="68" y="387" width="17" height="18" as="geometry" />
        </mxCell>
        <mxCell id="KpU182EsacGevF96RamK-43" value="4" style="text;html=1;align=center;verticalAlign=middle;resizable=0;points=[];autosize=1;" parent="1" vertex="1">
          <mxGeometry x="129" y="387" width="17" height="18" as="geometry" />
        </mxCell>
        <mxCell id="KpU182EsacGevF96RamK-44" value="5" style="text;html=1;align=center;verticalAlign=middle;resizable=0;points=[];autosize=1;" parent="1" vertex="1">
          <mxGeometry x="187" y="387" width="17" height="18" as="geometry" />
        </mxCell>
        <mxCell id="KpU182EsacGevF96RamK-45" value="6" style="text;html=1;align=center;verticalAlign=middle;resizable=0;points=[];autosize=1;" parent="1" vertex="1">
          <mxGeometry x="248" y="387" width="17" height="18" as="geometry" />
        </mxCell>
        <mxCell id="KpU182EsacGevF96RamK-46" value="7" style="text;html=1;align=center;verticalAlign=middle;resizable=0;points=[];autosize=1;" parent="1" vertex="1">
          <mxGeometry x="309" y="387" width="17" height="18" as="geometry" />
        </mxCell>
        <mxCell id="KpU182EsacGevF96RamK-47" value="8" style="text;html=1;align=center;verticalAlign=middle;resizable=0;points=[];autosize=1;" parent="1" vertex="1">
          <mxGeometry x="370" y="387" width="17" height="18" as="geometry" />
        </mxCell>
        <mxCell id="KpU182EsacGevF96RamK-48" value="9" style="text;html=1;align=center;verticalAlign=middle;resizable=0;points=[];autosize=1;" parent="1" vertex="1">
          <mxGeometry x="429.5" y="387" width="17" height="18" as="geometry" />
        </mxCell>
        <mxCell id="KpU182EsacGevF96RamK-49" value="10" style="text;html=1;align=center;verticalAlign=middle;resizable=0;points=[];autosize=1;" parent="1" vertex="1">
          <mxGeometry x="487.5" y="387" width="23" height="18" as="geometry" />
        </mxCell>
        <mxCell id="KpU182EsacGevF96RamK-50" value="11" style="text;html=1;align=center;verticalAlign=middle;resizable=0;points=[];autosize=1;" parent="1" vertex="1">
          <mxGeometry x="549.5" y="387" width="22" height="18" as="geometry" />
        </mxCell>
        <mxCell id="KpU182EsacGevF96RamK-51" value="12" style="text;html=1;align=center;verticalAlign=middle;resizable=0;points=[];autosize=1;" parent="1" vertex="1">
          <mxGeometry x="609.5" y="387" width="23" height="18" as="geometry" />
        </mxCell>
        <mxCell id="KpU182EsacGevF96RamK-52" value="13" style="text;html=1;align=center;verticalAlign=middle;resizable=0;points=[];autosize=1;" parent="1" vertex="1">
          <mxGeometry x="667.5" y="387" width="23" height="18" as="geometry" />
        </mxCell>
        <mxCell id="KpU182EsacGevF96RamK-53" value="14" style="text;html=1;align=center;verticalAlign=middle;resizable=0;points=[];autosize=1;" parent="1" vertex="1">
          <mxGeometry x="728.5" y="387" width="23" height="18" as="geometry" />
        </mxCell>
        <mxCell id="KpU182EsacGevF96RamK-54" value="15" style="text;html=1;align=center;verticalAlign=middle;resizable=0;points=[];autosize=1;" parent="1" vertex="1">
          <mxGeometry x="789.5" y="387" width="23" height="18" as="geometry" />
        </mxCell>
        <mxCell id="KpU182EsacGevF96RamK-55" value="16" style="text;html=1;align=center;verticalAlign=middle;resizable=0;points=[];autosize=1;" parent="1" vertex="1">
          <mxGeometry x="850.5" y="387" width="23" height="18" as="geometry" />
        </mxCell>
        <mxCell id="KpU182EsacGevF96RamK-68" style="edgeStyle=orthogonalEdgeStyle;rounded=0;orthogonalLoop=1;jettySize=auto;html=1;entryX=0.931;entryY=1;entryDx=0;entryDy=0;entryPerimeter=0;exitX=1.046;exitY=0.583;exitDx=0;exitDy=0;exitPerimeter=0;" parent="1" source="KpU182EsacGevF96RamK-56" target="KpU182EsacGevF96RamK-20" edge="1">
          <mxGeometry relative="1" as="geometry">
            <Array as="points">
              <mxPoint x="857" y="538" />
            </Array>
          </mxGeometry>
        </mxCell>
        <mxCell id="KpU182EsacGevF96RamK-56" value="&lt;span style=&quot;text-indent: 24px ; line-height: 140%&quot;&gt;ACC_PUBLIC&lt;br&gt;是否为 public 类型&lt;/span&gt;" style="text;html=1;align=left;verticalAlign=middle;resizable=0;points=[];autosize=1;" parent="1" vertex="1">
          <mxGeometry x="719" y="517" width="108" height="36" as="geometry" />
        </mxCell>
        <mxCell id="KpU182EsacGevF96RamK-69" style="edgeStyle=orthogonalEdgeStyle;rounded=0;orthogonalLoop=1;jettySize=auto;html=1;entryX=0.442;entryY=0.975;entryDx=0;entryDy=0;entryPerimeter=0;exitX=-0.003;exitY=0.633;exitDx=0;exitDy=0;exitPerimeter=0;" parent="1" source="KpU182EsacGevF96RamK-57" target="KpU182EsacGevF96RamK-20" edge="1">
          <mxGeometry relative="1" as="geometry" />
        </mxCell>
        <mxCell id="KpU182EsacGevF96RamK-57" value="&lt;p style=&quot;line-height: 140%&quot;&gt;&lt;span style=&quot;text-indent: 24px&quot;&gt;ACC_FINAL&lt;br&gt;&lt;/span&gt;&lt;span style=&quot;text-indent: 24px ; line-height: 140%&quot;&gt;是否被声明为 final，只有类可设置&lt;/span&gt;&lt;span style=&quot;text-indent: 24px&quot;&gt;&lt;br&gt;&lt;/span&gt;&lt;/p&gt;" style="text;html=1;align=left;verticalAlign=middle;resizable=0;points=[];autosize=1;" parent="1" vertex="1">
          <mxGeometry x="709.5" y="579" width="191" height="60" as="geometry" />
        </mxCell>
        <mxCell id="KpU182EsacGevF96RamK-70" style="edgeStyle=orthogonalEdgeStyle;rounded=0;orthogonalLoop=1;jettySize=auto;html=1;entryX=0.317;entryY=1.075;entryDx=0;entryDy=0;entryPerimeter=0;exitX=-0.002;exitY=0.519;exitDx=0;exitDy=0;exitPerimeter=0;" parent="1" source="KpU182EsacGevF96RamK-58" target="KpU182EsacGevF96RamK-20" edge="1">
          <mxGeometry relative="1" as="geometry">
            <Array as="points">
              <mxPoint x="562" y="666" />
            </Array>
          </mxGeometry>
        </mxCell>
        <mxCell id="KpU182EsacGevF96RamK-58" value="&lt;span style=&quot;text-indent: 24px ; line-height: 140%&quot;&gt;&lt;font style=&quot;font-size: 12px&quot;&gt;ACC_SUPER&lt;br&gt;是否运行使用 invokespecial 字节码指令的新语义&lt;br&gt;JDK 1.0.2编译出来的，此位为1&lt;/font&gt;&lt;/span&gt;" style="text;html=1;align=left;verticalAlign=middle;resizable=0;points=[];autosize=1;" parent="1" vertex="1">
          <mxGeometry x="673" y="639" width="269" height="52" as="geometry" />
        </mxCell>
        <mxCell id="KpU182EsacGevF96RamK-71" style="edgeStyle=orthogonalEdgeStyle;rounded=0;orthogonalLoop=1;jettySize=auto;html=1;entryX=0.806;entryY=1;entryDx=0;entryDy=0;entryPerimeter=0;" parent="1" source="KpU182EsacGevF96RamK-59" target="KpU182EsacGevF96RamK-30" edge="1">
          <mxGeometry relative="1" as="geometry">
            <Array as="points">
              <mxPoint x="317" y="495" />
            </Array>
          </mxGeometry>
        </mxCell>
        <mxCell id="KpU182EsacGevF96RamK-59" value="&lt;span style=&quot;text-indent: 24px ; line-height: 140%&quot;&gt;ACC_INTERFACE&lt;br&gt;标识这是一个接口&lt;/span&gt;" style="text;html=1;align=left;verticalAlign=middle;resizable=0;points=[];autosize=1;" parent="1" vertex="1">
          <mxGeometry x="366.5" y="477" width="109" height="36" as="geometry" />
        </mxCell>
        <mxCell id="KpU182EsacGevF96RamK-72" style="edgeStyle=orthogonalEdgeStyle;rounded=0;orthogonalLoop=1;jettySize=auto;html=1;exitX=-0.006;exitY=0.385;exitDx=0;exitDy=0;exitPerimeter=0;entryX=0.685;entryY=1.075;entryDx=0;entryDy=0;entryPerimeter=0;" parent="1" source="KpU182EsacGevF96RamK-60" target="KpU182EsacGevF96RamK-30" edge="1">
          <mxGeometry relative="1" as="geometry">
            <Array as="points">
              <mxPoint x="259" y="545" />
            </Array>
          </mxGeometry>
        </mxCell>
        <mxCell id="KpU182EsacGevF96RamK-60" value="&lt;span style=&quot;text-indent: 24px; line-height: 140%;&quot;&gt;ACC_ABSTRACT&lt;br&gt;是否为 abstract 类型&lt;br&gt;对于接口和抽象类，此位为1，其他类型为0&lt;br&gt;&lt;/span&gt;" style="text;html=1;align=left;verticalAlign=middle;resizable=0;points=[];autosize=1;" parent="1" vertex="1">
          <mxGeometry x="310.5" y="525" width="239" height="52" as="geometry" />
        </mxCell>
        <mxCell id="KpU182EsacGevF96RamK-76" style="edgeStyle=orthogonalEdgeStyle;rounded=0;orthogonalLoop=1;jettySize=auto;html=1;entryX=0.069;entryY=1.1;entryDx=0;entryDy=0;entryPerimeter=0;" parent="1" source="KpU182EsacGevF96RamK-62" target="KpU182EsacGevF96RamK-30" edge="1">
          <mxGeometry relative="1" as="geometry">
            <Array as="points">
              <mxPoint x="-37" y="573" />
              <mxPoint x="-37" y="573" />
            </Array>
          </mxGeometry>
        </mxCell>
        <mxCell id="KpU182EsacGevF96RamK-62" value="&lt;p style=&quot;line-height: 140%&quot;&gt;&lt;span style=&quot;text-indent: 24px&quot;&gt;ACC_MODULE&lt;br&gt;&lt;/span&gt;标识这是个模块&lt;br&gt;JDK 9 新增&lt;/p&gt;" style="text;html=1;align=left;verticalAlign=middle;resizable=0;points=[];autosize=1;" parent="1" vertex="1">
          <mxGeometry x="-87" y="566" width="94" height="76" as="geometry" />
        </mxCell>
        <mxCell id="KpU182EsacGevF96RamK-73" style="edgeStyle=orthogonalEdgeStyle;rounded=0;orthogonalLoop=1;jettySize=auto;html=1;entryX=0.433;entryY=1.025;entryDx=0;entryDy=0;entryPerimeter=0;" parent="1" source="KpU182EsacGevF96RamK-65" target="KpU182EsacGevF96RamK-30" edge="1">
          <mxGeometry relative="1" as="geometry">
            <Array as="points">
              <mxPoint x="138" y="588" />
            </Array>
          </mxGeometry>
        </mxCell>
        <mxCell id="KpU182EsacGevF96RamK-65" value="&lt;span style=&quot;text-indent: 24px ; line-height: 140%&quot;&gt;ACC_SYNTHETIC&lt;br&gt;标识这个类并非用户代码生成的&lt;br&gt;&lt;/span&gt;" style="text;html=1;align=left;verticalAlign=middle;resizable=0;points=[];autosize=1;" parent="1" vertex="1">
          <mxGeometry x="163" y="570" width="178" height="36" as="geometry" />
        </mxCell>
        <mxCell id="KpU182EsacGevF96RamK-74" style="edgeStyle=orthogonalEdgeStyle;rounded=0;orthogonalLoop=1;jettySize=auto;html=1;entryX=0.31;entryY=1.025;entryDx=0;entryDy=0;entryPerimeter=0;" parent="1" source="KpU182EsacGevF96RamK-66" target="KpU182EsacGevF96RamK-30" edge="1">
          <mxGeometry relative="1" as="geometry">
            <mxPoint x="80" y="476" as="targetPoint" />
            <Array as="points">
              <mxPoint x="79" y="556" />
            </Array>
          </mxGeometry>
        </mxCell>
        <mxCell id="KpU182EsacGevF96RamK-66" value="&lt;span style=&quot;text-indent: 24px ; line-height: 140%&quot;&gt;ACC_ANNOTATION&lt;br&gt;标识这是个注解&lt;br&gt;&lt;/span&gt;" style="text;html=1;align=left;verticalAlign=middle;resizable=0;points=[];autosize=1;" parent="1" vertex="1">
          <mxGeometry x="41" y="602" width="119" height="36" as="geometry" />
        </mxCell>
        <mxCell id="KpU182EsacGevF96RamK-75" style="edgeStyle=orthogonalEdgeStyle;rounded=0;orthogonalLoop=1;jettySize=auto;html=1;entryX=0.188;entryY=1;entryDx=0;entryDy=0;entryPerimeter=0;" parent="1" source="KpU182EsacGevF96RamK-67" target="KpU182EsacGevF96RamK-30" edge="1">
          <mxGeometry relative="1" as="geometry">
            <mxPoint x="20" y="473" as="targetPoint" />
            <Array as="points">
              <mxPoint x="20" y="602" />
            </Array>
          </mxGeometry>
        </mxCell>
        <mxCell id="KpU182EsacGevF96RamK-67" value="&lt;span style=&quot;text-indent: 24px ; line-height: 140%&quot;&gt;ACC_ENUM&lt;br&gt;标识这是个枚举&lt;br&gt;&lt;/span&gt;" style="text;html=1;align=left;verticalAlign=middle;resizable=0;points=[];autosize=1;" parent="1" vertex="1">
          <mxGeometry x="-14" y="647" width="94" height="36" as="geometry" />
        </mxCell>
        <mxCell id="KpU182EsacGevF96RamK-78" value="" style="shape=table;html=1;whiteSpace=wrap;startSize=0;container=1;collapsible=0;childLayout=tableLayout;fillColor=#ffe6cc;strokeColor=#d79b00;" parent="1" vertex="1">
          <mxGeometry x="398" y="818" width="480" height="40" as="geometry" />
        </mxCell>
        <mxCell id="KpU182EsacGevF96RamK-79" value="" style="shape=partialRectangle;html=1;whiteSpace=wrap;collapsible=0;dropTarget=0;pointerEvents=0;fillColor=none;top=0;left=0;bottom=0;right=0;points=[[0,0.5],[1,0.5]];portConstraint=eastwest;" parent="KpU182EsacGevF96RamK-78" vertex="1">
          <mxGeometry width="480" height="40" as="geometry" />
        </mxCell>
        <mxCell id="KpU182EsacGevF96RamK-80" value="0" style="shape=partialRectangle;html=1;whiteSpace=wrap;connectable=0;overflow=hidden;fillColor=none;top=0;left=0;bottom=0;right=0;" parent="KpU182EsacGevF96RamK-79" vertex="1">
          <mxGeometry width="60" height="40" as="geometry" />
        </mxCell>
        <mxCell id="KpU182EsacGevF96RamK-81" value="0" style="shape=partialRectangle;html=1;whiteSpace=wrap;connectable=0;overflow=hidden;fillColor=none;top=0;left=0;bottom=0;right=0;" parent="KpU182EsacGevF96RamK-79" vertex="1">
          <mxGeometry x="60" width="60" height="40" as="geometry" />
        </mxCell>
        <mxCell id="KpU182EsacGevF96RamK-82" value="&lt;span&gt;&lt;font color=&quot;#ff0000&quot;&gt;&lt;b&gt;1&lt;/b&gt;&lt;/font&gt;&lt;/span&gt;" style="shape=partialRectangle;html=1;whiteSpace=wrap;connectable=0;overflow=hidden;fillColor=none;top=0;left=0;bottom=0;right=0;" parent="KpU182EsacGevF96RamK-79" vertex="1">
          <mxGeometry x="120" width="60" height="40" as="geometry" />
        </mxCell>
        <mxCell id="KpU182EsacGevF96RamK-83" value="&lt;span&gt;0&lt;/span&gt;" style="shape=partialRectangle;html=1;whiteSpace=wrap;connectable=0;overflow=hidden;fillColor=none;top=0;left=0;bottom=0;right=0;" parent="KpU182EsacGevF96RamK-79" vertex="1">
          <mxGeometry x="180" width="60" height="40" as="geometry" />
        </mxCell>
        <mxCell id="KpU182EsacGevF96RamK-84" value="0" style="shape=partialRectangle;html=1;whiteSpace=wrap;connectable=0;overflow=hidden;fillColor=none;top=0;left=0;bottom=0;right=0;" parent="KpU182EsacGevF96RamK-79" vertex="1">
          <mxGeometry x="240" width="60" height="40" as="geometry" />
        </mxCell>
        <mxCell id="KpU182EsacGevF96RamK-85" value="0" style="shape=partialRectangle;html=1;whiteSpace=wrap;connectable=0;overflow=hidden;fillColor=none;top=0;left=0;bottom=0;right=0;" parent="KpU182EsacGevF96RamK-79" vertex="1">
          <mxGeometry x="300" width="60" height="40" as="geometry" />
        </mxCell>
        <mxCell id="KpU182EsacGevF96RamK-86" value="0" style="shape=partialRectangle;html=1;whiteSpace=wrap;connectable=0;overflow=hidden;fillColor=none;top=0;left=0;bottom=0;right=0;" parent="KpU182EsacGevF96RamK-79" vertex="1">
          <mxGeometry x="360" width="60" height="40" as="geometry" />
        </mxCell>
        <mxCell id="KpU182EsacGevF96RamK-87" value="&lt;span&gt;&lt;b&gt;&lt;font color=&quot;#ff0000&quot;&gt;1&lt;/font&gt;&lt;/b&gt;&lt;/span&gt;" style="shape=partialRectangle;html=1;whiteSpace=wrap;connectable=0;overflow=hidden;fillColor=none;top=0;left=0;bottom=0;right=0;" parent="KpU182EsacGevF96RamK-79" vertex="1">
          <mxGeometry x="420" width="60" height="40" as="geometry" />
        </mxCell>
        <mxCell id="KpU182EsacGevF96RamK-88" value="" style="shape=table;html=1;whiteSpace=wrap;startSize=0;container=1;collapsible=0;childLayout=tableLayout;fillColor=#dae8fc;strokeColor=#6c8ebf;" parent="1" vertex="1">
          <mxGeometry x="-82" y="818" width="480" height="40" as="geometry" />
        </mxCell>
        <mxCell id="KpU182EsacGevF96RamK-89" value="" style="shape=partialRectangle;html=1;whiteSpace=wrap;collapsible=0;dropTarget=0;pointerEvents=0;fillColor=none;top=0;left=0;bottom=0;right=0;points=[[0,0.5],[1,0.5]];portConstraint=eastwest;" parent="KpU182EsacGevF96RamK-88" vertex="1">
          <mxGeometry width="480" height="40" as="geometry" />
        </mxCell>
        <mxCell id="KpU182EsacGevF96RamK-90" value="&lt;span&gt;0&lt;/span&gt;" style="shape=partialRectangle;html=1;whiteSpace=wrap;connectable=0;overflow=hidden;fillColor=none;top=0;left=0;bottom=0;right=0;" parent="KpU182EsacGevF96RamK-89" vertex="1">
          <mxGeometry width="60" height="40" as="geometry" />
        </mxCell>
        <mxCell id="KpU182EsacGevF96RamK-91" value="&lt;span&gt;0&lt;/span&gt;" style="shape=partialRectangle;html=1;whiteSpace=wrap;connectable=0;overflow=hidden;fillColor=none;top=0;left=0;bottom=0;right=0;" parent="KpU182EsacGevF96RamK-89" vertex="1">
          <mxGeometry x="60" width="60" height="40" as="geometry" />
        </mxCell>
        <mxCell id="KpU182EsacGevF96RamK-92" value="&lt;span&gt;0&lt;/span&gt;" style="shape=partialRectangle;html=1;whiteSpace=wrap;connectable=0;overflow=hidden;fillColor=none;top=0;left=0;bottom=0;right=0;" parent="KpU182EsacGevF96RamK-89" vertex="1">
          <mxGeometry x="120" width="60" height="40" as="geometry" />
        </mxCell>
        <mxCell id="KpU182EsacGevF96RamK-93" value="&lt;span&gt;0&lt;/span&gt;" style="shape=partialRectangle;html=1;whiteSpace=wrap;connectable=0;overflow=hidden;fillColor=none;top=0;left=0;bottom=0;right=0;" parent="KpU182EsacGevF96RamK-89" vertex="1">
          <mxGeometry x="180" width="60" height="40" as="geometry" />
        </mxCell>
        <mxCell id="KpU182EsacGevF96RamK-94" value="0" style="shape=partialRectangle;html=1;whiteSpace=wrap;connectable=0;overflow=hidden;fillColor=none;top=0;left=0;bottom=0;right=0;" parent="KpU182EsacGevF96RamK-89" vertex="1">
          <mxGeometry x="240" width="60" height="40" as="geometry" />
        </mxCell>
        <mxCell id="KpU182EsacGevF96RamK-95" value="0" style="shape=partialRectangle;html=1;whiteSpace=wrap;connectable=0;overflow=hidden;fillColor=none;top=0;left=0;bottom=0;right=0;" parent="KpU182EsacGevF96RamK-89" vertex="1">
          <mxGeometry x="300" width="60" height="40" as="geometry" />
        </mxCell>
        <mxCell id="KpU182EsacGevF96RamK-96" value="&lt;span&gt;0&lt;/span&gt;" style="shape=partialRectangle;html=1;whiteSpace=wrap;connectable=0;overflow=hidden;fillColor=none;top=0;left=0;bottom=0;right=0;" parent="KpU182EsacGevF96RamK-89" vertex="1">
          <mxGeometry x="360" width="60" height="40" as="geometry" />
        </mxCell>
        <mxCell id="KpU182EsacGevF96RamK-97" value="&lt;span&gt;0&lt;/span&gt;" style="shape=partialRectangle;html=1;whiteSpace=wrap;connectable=0;overflow=hidden;fillColor=none;top=0;left=0;bottom=0;right=0;" parent="KpU182EsacGevF96RamK-89" vertex="1">
          <mxGeometry x="420" width="60" height="40" as="geometry" />
        </mxCell>
        <mxCell id="KpU182EsacGevF96RamK-98" value="1" style="text;html=1;align=center;verticalAlign=middle;resizable=0;points=[];autosize=1;" parent="1" vertex="1">
          <mxGeometry x="-66" y="780" width="17" height="18" as="geometry" />
        </mxCell>
        <mxCell id="KpU182EsacGevF96RamK-99" value="2" style="text;html=1;align=center;verticalAlign=middle;resizable=0;points=[];autosize=1;" parent="1" vertex="1">
          <mxGeometry x="-5" y="780" width="17" height="18" as="geometry" />
        </mxCell>
        <mxCell id="KpU182EsacGevF96RamK-100" value="3" style="text;html=1;align=center;verticalAlign=middle;resizable=0;points=[];autosize=1;" parent="1" vertex="1">
          <mxGeometry x="56" y="780" width="17" height="18" as="geometry" />
        </mxCell>
        <mxCell id="KpU182EsacGevF96RamK-101" value="4" style="text;html=1;align=center;verticalAlign=middle;resizable=0;points=[];autosize=1;" parent="1" vertex="1">
          <mxGeometry x="117" y="780" width="17" height="18" as="geometry" />
        </mxCell>
        <mxCell id="KpU182EsacGevF96RamK-102" value="5" style="text;html=1;align=center;verticalAlign=middle;resizable=0;points=[];autosize=1;" parent="1" vertex="1">
          <mxGeometry x="175" y="780" width="17" height="18" as="geometry" />
        </mxCell>
        <mxCell id="KpU182EsacGevF96RamK-103" value="6" style="text;html=1;align=center;verticalAlign=middle;resizable=0;points=[];autosize=1;" parent="1" vertex="1">
          <mxGeometry x="236" y="780" width="17" height="18" as="geometry" />
        </mxCell>
        <mxCell id="KpU182EsacGevF96RamK-104" value="7" style="text;html=1;align=center;verticalAlign=middle;resizable=0;points=[];autosize=1;" parent="1" vertex="1">
          <mxGeometry x="297" y="780" width="17" height="18" as="geometry" />
        </mxCell>
        <mxCell id="KpU182EsacGevF96RamK-105" value="8" style="text;html=1;align=center;verticalAlign=middle;resizable=0;points=[];autosize=1;" parent="1" vertex="1">
          <mxGeometry x="358" y="780" width="17" height="18" as="geometry" />
        </mxCell>
        <mxCell id="KpU182EsacGevF96RamK-106" value="9" style="text;html=1;align=center;verticalAlign=middle;resizable=0;points=[];autosize=1;" parent="1" vertex="1">
          <mxGeometry x="417.5" y="780" width="17" height="18" as="geometry" />
        </mxCell>
        <mxCell id="KpU182EsacGevF96RamK-107" value="10" style="text;html=1;align=center;verticalAlign=middle;resizable=0;points=[];autosize=1;" parent="1" vertex="1">
          <mxGeometry x="475.5" y="780" width="23" height="18" as="geometry" />
        </mxCell>
        <mxCell id="KpU182EsacGevF96RamK-108" value="11" style="text;html=1;align=center;verticalAlign=middle;resizable=0;points=[];autosize=1;" parent="1" vertex="1">
          <mxGeometry x="537.5" y="780" width="22" height="18" as="geometry" />
        </mxCell>
        <mxCell id="KpU182EsacGevF96RamK-109" value="12" style="text;html=1;align=center;verticalAlign=middle;resizable=0;points=[];autosize=1;" parent="1" vertex="1">
          <mxGeometry x="597.5" y="780" width="23" height="18" as="geometry" />
        </mxCell>
        <mxCell id="KpU182EsacGevF96RamK-110" value="13" style="text;html=1;align=center;verticalAlign=middle;resizable=0;points=[];autosize=1;" parent="1" vertex="1">
          <mxGeometry x="655.5" y="780" width="23" height="18" as="geometry" />
        </mxCell>
        <mxCell id="KpU182EsacGevF96RamK-111" value="14" style="text;html=1;align=center;verticalAlign=middle;resizable=0;points=[];autosize=1;" parent="1" vertex="1">
          <mxGeometry x="716.5" y="780" width="23" height="18" as="geometry" />
        </mxCell>
        <mxCell id="KpU182EsacGevF96RamK-112" value="15" style="text;html=1;align=center;verticalAlign=middle;resizable=0;points=[];autosize=1;" parent="1" vertex="1">
          <mxGeometry x="777.5" y="780" width="23" height="18" as="geometry" />
        </mxCell>
        <mxCell id="KpU182EsacGevF96RamK-113" value="16" style="text;html=1;align=center;verticalAlign=middle;resizable=0;points=[];autosize=1;" parent="1" vertex="1">
          <mxGeometry x="838.5" y="780" width="23" height="18" as="geometry" />
        </mxCell>
        <mxCell id="KpU182EsacGevF96RamK-114" value="" style="shape=curlyBracket;whiteSpace=wrap;html=1;rounded=1;align=left;rotation=-90;" parent="1" vertex="1">
          <mxGeometry x="140" y="651" width="23" height="451" as="geometry" />
        </mxCell>
        <mxCell id="KpU182EsacGevF96RamK-115" value="00" style="text;html=1;align=center;verticalAlign=middle;resizable=0;points=[];autosize=1;" parent="1" vertex="1">
          <mxGeometry x="138" y="894" width="23" height="18" as="geometry" />
        </mxCell>
        <mxCell id="KpU182EsacGevF96RamK-116" value="" style="shape=curlyBracket;whiteSpace=wrap;html=1;rounded=1;align=left;rotation=-90;" parent="1" vertex="1">
          <mxGeometry x="627.5" y="651" width="23" height="451" as="geometry" />
        </mxCell>
        <mxCell id="KpU182EsacGevF96RamK-117" value="21" style="text;html=1;align=center;verticalAlign=middle;resizable=0;points=[];autosize=1;" parent="1" vertex="1">
          <mxGeometry x="625.5" y="894" width="23" height="18" as="geometry" />
        </mxCell>
        <mxCell id="KpU182EsacGevF96RamK-118" value="地址位" style="text;html=1;align=center;verticalAlign=middle;resizable=0;points=[];autosize=1;" parent="1" vertex="1">
          <mxGeometry x="-122" y="387" width="46" height="18" as="geometry" />
        </mxCell>
        <mxCell id="KpU182EsacGevF96RamK-119" value="" style="shape=curlyBracket;whiteSpace=wrap;html=1;rounded=1;align=left;rotation=90;" parent="1" vertex="1">
          <mxGeometry x="152" y="135" width="23" height="451" as="geometry" />
        </mxCell>
        <mxCell id="KpU182EsacGevF96RamK-120" value="高位字节在地址的地位" style="text;html=1;align=center;verticalAlign=middle;resizable=0;points=[];autosize=1;" parent="1" vertex="1">
          <mxGeometry x="86" y="313" width="130" height="18" as="geometry" />
        </mxCell>
        <mxCell id="31JTc4GcEN89d1lP_IlO-4" value="&lt;p class=&quot;MsoNormal&quot; style=&quot;line-height: 130%&quot;&gt;&lt;span style=&quot;font-family: &amp;#34;dejavu sans mono&amp;#34; ; font-size: 9.0000pt&quot;&gt;00000000h:&amp;nbsp;&lt;span style=&quot;background-color: rgb(255 , 204 , 153)&quot;&gt;CA&amp;nbsp;FE&amp;nbsp;BA&amp;nbsp;BE&lt;/span&gt;&lt;/span&gt;&lt;span style=&quot;font-family: &amp;#34;dejavu sans mono&amp;#34; ; font-size: 9.0000pt&quot;&gt;&amp;nbsp;&lt;span style=&quot;background-color: rgb(204 , 255 , 153)&quot;&gt;00&amp;nbsp;00&amp;nbsp;00&amp;nbsp;37&lt;/span&gt;&lt;/span&gt;&lt;span style=&quot;font-family: &amp;#34;dejavu sans mono&amp;#34; ; font-size: 9.0000pt&quot;&gt;&amp;nbsp;&lt;span style=&quot;background-color: rgb(102 , 178 , 255)&quot;&gt;00&amp;nbsp;22&lt;/span&gt;&amp;nbsp;&lt;span style=&quot;background-color: rgb(255 , 102 , 255)&quot;&gt;0A&amp;nbsp;00&amp;nbsp;06&lt;/span&gt;&lt;span style=&quot;background-color: rgb(255 , 102 , 255)&quot;&gt;&amp;nbsp;00&amp;nbsp;14&lt;/span&gt;&amp;nbsp;&lt;span style=&quot;background-color: rgb(255 , 102 , 102)&quot;&gt;09&lt;/span&gt;&amp;nbsp;;&amp;nbsp;Êþº¾...7.&quot;......&lt;/span&gt;&lt;span style=&quot;font-family: &amp;#34;dejavu sans mono&amp;#34; ; font-size: 9.0000pt&quot;&gt;&lt;br&gt;&lt;/span&gt;&lt;span style=&quot;font-family: &amp;#34;dejavu sans mono&amp;#34; ; font-size: 9.0000pt&quot;&gt;00000010h:&amp;nbsp;&lt;span style=&quot;background-color: rgb(255 , 102 , 102)&quot;&gt;00&amp;nbsp;15&amp;nbsp;00&amp;nbsp;16&lt;/span&gt;&amp;nbsp;&lt;span style=&quot;background-color: rgb(255 , 153 , 153)&quot;&gt;09&amp;nbsp;00&amp;nbsp;05&amp;nbsp;00&amp;nbsp;17&lt;/span&gt;&amp;nbsp;&lt;span style=&quot;background-color: rgb(255 , 153 , 255)&quot;&gt;0A&amp;nbsp;00&amp;nbsp;18&amp;nbsp;00&amp;nbsp;19&lt;/span&gt;&amp;nbsp;&lt;span style=&quot;background-color: rgb(255 , 255 , 102)&quot;&gt;07&amp;nbsp;00&lt;/span&gt;&amp;nbsp;;&amp;nbsp;................&lt;/span&gt;&lt;span style=&quot;font-family: &amp;#34;dejavu sans mono&amp;#34; ; font-size: 9.0000pt&quot;&gt;&lt;br&gt;&lt;/span&gt;&lt;span style=&quot;font-family: &amp;#34;dejavu sans mono&amp;#34; ; font-size: 9.0000pt&quot;&gt;00000020h:&amp;nbsp;&lt;span style=&quot;background-color: rgb(255 , 255 , 102)&quot;&gt;1A&lt;/span&gt;&lt;span style=&quot;background-color: rgb(255 , 255 , 255)&quot;&gt;&amp;nbsp;&lt;/span&gt;&lt;span style=&quot;background-color: rgb(255 , 228 , 166)&quot;&gt;07&amp;nbsp;00&amp;nbsp;1B&lt;/span&gt;&amp;nbsp;&lt;span style=&quot;background-color: rgb(178 , 102 , 255)&quot;&gt;01&amp;nbsp;00&amp;nbsp;03&amp;nbsp;61&amp;nbsp;67&amp;nbsp;65&lt;/span&gt;&amp;nbsp;&lt;span style=&quot;background-color: rgb(255 , 204 , 204)&quot;&gt;01&amp;nbsp;00&amp;nbsp;01&amp;nbsp;49&lt;/span&gt;&amp;nbsp;&lt;span style=&quot;background-color: rgb(255 , 230 , 204)&quot;&gt;01&amp;nbsp;00&lt;/span&gt;&amp;nbsp;;&amp;nbsp;.......age...I..&lt;/span&gt;&lt;span style=&quot;font-family: &amp;#34;dejavu sans mono&amp;#34; ; font-size: 9.0000pt&quot;&gt;&lt;br&gt;&lt;/span&gt;&lt;span style=&quot;font-family: &amp;#34;dejavu sans mono&amp;#34; ; font-size: 9.0000pt&quot;&gt;00000030h:&amp;nbsp;&lt;span style=&quot;background-color: rgb(255 , 230 , 204)&quot;&gt;06&amp;nbsp;3C&amp;nbsp;69&amp;nbsp;6E&amp;nbsp;69&amp;nbsp;74&amp;nbsp;3E&lt;/span&gt;&amp;nbsp;&lt;span style=&quot;background-color: rgb(255 , 255 , 204)&quot;&gt;01&amp;nbsp;00&amp;nbsp;03&amp;nbsp;28&amp;nbsp;29&amp;nbsp;56&lt;/span&gt;&amp;nbsp;&lt;span style=&quot;background-color: rgb(230 , 255 , 204)&quot;&gt;01&amp;nbsp;00&amp;nbsp;04&lt;/span&gt;&amp;nbsp;;&amp;nbsp;.&amp;lt;init&amp;gt;...()V...&lt;/span&gt;&lt;span style=&quot;font-family: &amp;#34;dejavu sans mono&amp;#34; ; font-size: 9.0000pt&quot;&gt;&lt;br&gt;&lt;/span&gt;&lt;span style=&quot;font-family: &amp;#34;dejavu sans mono&amp;#34; ; font-size: 9.0000pt&quot;&gt;00000040h:&amp;nbsp;&lt;span style=&quot;background-color: rgb(230 , 255 , 204)&quot;&gt;43&amp;nbsp;6F&amp;nbsp;64&amp;nbsp;65&lt;/span&gt;&amp;nbsp;&lt;span style=&quot;background-color: rgb(204 , 255 , 204)&quot;&gt;01&amp;nbsp;00&amp;nbsp;0F&amp;nbsp;4C&amp;nbsp;69&amp;nbsp;6E&amp;nbsp;65&amp;nbsp;4E&amp;nbsp;75&amp;nbsp;6D&amp;nbsp;62&amp;nbsp;65&lt;/span&gt;&amp;nbsp;;&amp;nbsp;Code...LineNumbe&lt;/span&gt;&lt;span style=&quot;font-family: &amp;#34;dejavu sans mono&amp;#34; ; font-size: 9.0000pt&quot;&gt;&lt;br&gt;&lt;/span&gt;&lt;span style=&quot;font-family: &amp;#34;dejavu sans mono&amp;#34; ; font-size: 9.0000pt&quot;&gt;00000050h:&amp;nbsp;&lt;span style=&quot;background-color: rgb(204 , 255 , 204)&quot;&gt;72&amp;nbsp;54&amp;nbsp;61&amp;nbsp;62&amp;nbsp;6C&amp;nbsp;65&lt;/span&gt;&amp;nbsp;&lt;span style=&quot;background-color: rgb(153 , 255 , 153)&quot;&gt;01&amp;nbsp;00&amp;nbsp;12&amp;nbsp;4C&amp;nbsp;6F&amp;nbsp;63&amp;nbsp;61&amp;nbsp;6C&amp;nbsp;56&amp;nbsp;61&lt;/span&gt;&amp;nbsp;;&amp;nbsp;rTable...LocalVa&lt;/span&gt;&lt;span style=&quot;font-family: &amp;#34;dejavu sans mono&amp;#34; ; font-size: 9.0000pt&quot;&gt;&lt;br&gt;&lt;/span&gt;&lt;span style=&quot;font-family: &amp;#34;dejavu sans mono&amp;#34; ; font-size: 9.0000pt&quot;&gt;00000060h:&amp;nbsp;&lt;span style=&quot;background-color: rgb(153 , 255 , 153)&quot;&gt;72&amp;nbsp;69&amp;nbsp;61&amp;nbsp;62&amp;nbsp;6C&amp;nbsp;65&amp;nbsp;54&amp;nbsp;61&amp;nbsp;62&amp;nbsp;6C&amp;nbsp;65&lt;/span&gt;&amp;nbsp;&lt;span style=&quot;background-color: rgb(153 , 255 , 204)&quot;&gt;01&amp;nbsp;00&amp;nbsp;04&amp;nbsp;74&amp;nbsp;68&lt;/span&gt;&amp;nbsp;;&amp;nbsp;riableTable...th&lt;/span&gt;&lt;span style=&quot;font-family: &amp;#34;dejavu sans mono&amp;#34; ; font-size: 9.0000pt&quot;&gt;&lt;br&gt;&lt;/span&gt;&lt;span style=&quot;font-family: &amp;#34;dejavu sans mono&amp;#34; ; font-size: 9.0000pt&quot;&gt;00000070h:&amp;nbsp;&lt;span style=&quot;background-color: rgb(153 , 255 , 204)&quot;&gt;69&amp;nbsp;73&lt;/span&gt;&amp;nbsp;&lt;span style=&quot;background-color: rgb(153 , 255 , 255)&quot;&gt;01&amp;nbsp;00&amp;nbsp;19&amp;nbsp;4C&amp;nbsp;63&amp;nbsp;6F&amp;nbsp;6D&amp;nbsp;2F&amp;nbsp;79&amp;nbsp;6B&amp;nbsp;79&amp;nbsp;2F&amp;nbsp;63&amp;nbsp;6C&lt;/span&gt;&amp;nbsp;;&amp;nbsp;is...Lcom/yky/cl&lt;/span&gt;&lt;span style=&quot;font-family: &amp;#34;dejavu sans mono&amp;#34; ; font-size: 9.0000pt&quot;&gt;&lt;br&gt;&lt;/span&gt;&lt;span style=&quot;font-family: &amp;#34;dejavu sans mono&amp;#34; ; font-size: 9.0000pt&quot;&gt;00000080h:&amp;nbsp;&lt;span style=&quot;background-color: rgb(153 , 255 , 255)&quot;&gt;61&amp;nbsp;7A&amp;nbsp;7A&amp;nbsp;2F&amp;nbsp;54&amp;nbsp;65&amp;nbsp;73&amp;nbsp;74&amp;nbsp;43&amp;nbsp;6C&amp;nbsp;61&amp;nbsp;73&amp;nbsp;73&amp;nbsp;3B&lt;/span&gt;&amp;nbsp;&lt;span style=&quot;background-color: rgb(153 , 204 , 255)&quot;&gt;01&amp;nbsp;00&lt;/span&gt;&amp;nbsp;;&amp;nbsp;azz/TestClass;..&lt;/span&gt;&lt;span style=&quot;font-family: &amp;#34;dejavu sans mono&amp;#34; ; font-size: 9.0000pt&quot;&gt;&lt;br&gt;&lt;/span&gt;&lt;span style=&quot;font-family: &amp;#34;dejavu sans mono&amp;#34; ; font-size: 9.0000pt&quot;&gt;00000090h:&amp;nbsp;&lt;span style=&quot;background-color: rgb(153 , 204 , 255)&quot;&gt;04&amp;nbsp;74&amp;nbsp;61&amp;nbsp;6C&amp;nbsp;6B&lt;/span&gt;&amp;nbsp;&lt;span style=&quot;background-color: rgb(153 , 153 , 255)&quot;&gt;01&amp;nbsp;00&amp;nbsp;03&amp;nbsp;28&amp;nbsp;29&amp;nbsp;49&lt;/span&gt;&amp;nbsp;&lt;span style=&quot;background-color: rgb(204 , 153 , 255)&quot;&gt;01&amp;nbsp;00&amp;nbsp;0A&amp;nbsp;53&amp;nbsp;6F&lt;/span&gt;&amp;nbsp;;&amp;nbsp;.talk...()I...So&lt;/span&gt;&lt;span style=&quot;font-family: &amp;#34;dejavu sans mono&amp;#34; ; font-size: 9.0000pt&quot;&gt;&lt;br&gt;&lt;/span&gt;&lt;span style=&quot;font-family: &amp;#34;dejavu sans mono&amp;#34; ; font-size: 9.0000pt&quot;&gt;000000a0h:&amp;nbsp;&lt;span style=&quot;background-color: rgb(204 , 153 , 255)&quot;&gt;75&amp;nbsp;72&amp;nbsp;63&amp;nbsp;65&amp;nbsp;46&amp;nbsp;69&amp;nbsp;6C&amp;nbsp;65&lt;/span&gt;&amp;nbsp;&lt;span style=&quot;background-color: rgb(255 , 153 , 255)&quot;&gt;01&amp;nbsp;00&amp;nbsp;0E&amp;nbsp;54&amp;nbsp;65&amp;nbsp;73&amp;nbsp;74&amp;nbsp;43&lt;/span&gt;&amp;nbsp;;&amp;nbsp;urceFile...TestC&lt;/span&gt;&lt;span style=&quot;font-family: &amp;#34;dejavu sans mono&amp;#34; ; font-size: 9.0000pt&quot;&gt;&lt;br&gt;&lt;/span&gt;&lt;span style=&quot;font-family: &amp;#34;dejavu sans mono&amp;#34; ; font-size: 9.0000pt&quot;&gt;000000b0h:&amp;nbsp;&lt;span style=&quot;background-color: rgb(255 , 153 , 255)&quot;&gt;6C&amp;nbsp;61&amp;nbsp;73&amp;nbsp;73&amp;nbsp;2E&amp;nbsp;6A&amp;nbsp;61&amp;nbsp;76&amp;nbsp;61&lt;/span&gt;&amp;nbsp;&lt;span style=&quot;background-color: rgb(255 , 51 , 51)&quot;&gt;0C&amp;nbsp;00&amp;nbsp;09&amp;nbsp;00&amp;nbsp;0A&lt;/span&gt;&amp;nbsp;&lt;span style=&quot;background-color: rgb(255 , 229 , 153)&quot;&gt;07&amp;nbsp;00&lt;/span&gt;&amp;nbsp;;&amp;nbsp;lass.java.......&lt;/span&gt;&lt;span style=&quot;font-family: &amp;#34;dejavu sans mono&amp;#34; ; font-size: 9.0000pt&quot;&gt;&lt;br&gt;&lt;/span&gt;&lt;span style=&quot;font-family: &amp;#34;dejavu sans mono&amp;#34; ; font-size: 9.0000pt&quot;&gt;000000c0h:&amp;nbsp;&lt;span style=&quot;background-color: rgb(255 , 229 , 153)&quot;&gt;1C&lt;/span&gt;&amp;nbsp;&lt;span style=&quot;background-color: rgb(255 , 153 , 204)&quot;&gt;0C&amp;nbsp;00&amp;nbsp;1D&amp;nbsp;00&amp;nbsp;1E&lt;/span&gt;&amp;nbsp;&lt;span style=&quot;background-color: rgb(255 , 102 , 102)&quot;&gt;0C&amp;nbsp;00&amp;nbsp;07&amp;nbsp;00&amp;nbsp;08&lt;/span&gt;&amp;nbsp;&lt;span style=&quot;background-color: rgb(103 , 171 , 159)&quot;&gt;07&amp;nbsp;00&amp;nbsp;1F&lt;/span&gt;&amp;nbsp;&lt;span style=&quot;background-color: rgb(154 , 199 , 191)&quot;&gt;0C&amp;nbsp;00&lt;/span&gt;&amp;nbsp;;&amp;nbsp;................&lt;/span&gt;&lt;span style=&quot;font-family: &amp;#34;dejavu sans mono&amp;#34; ; font-size: 9.0000pt&quot;&gt;&lt;br&gt;&lt;/span&gt;&lt;span style=&quot;font-family: &amp;#34;dejavu sans mono&amp;#34; ; font-size: 9.0000pt&quot;&gt;000000d0h:&amp;nbsp;&lt;span style=&quot;background-color: rgb(154 , 199 , 191)&quot;&gt;20&amp;nbsp;00&amp;nbsp;21&lt;/span&gt;&amp;nbsp;&lt;span style=&quot;background-color: rgb(213 , 232 , 212)&quot;&gt;01&amp;nbsp;00&amp;nbsp;17&amp;nbsp;63&amp;nbsp;6F&amp;nbsp;6D&amp;nbsp;2F&amp;nbsp;79&amp;nbsp;6B&amp;nbsp;79&amp;nbsp;2F&amp;nbsp;63&amp;nbsp;6C&lt;/span&gt;&amp;nbsp;;&amp;nbsp;&amp;nbsp;.!...com/yky/cl&lt;/span&gt;&lt;span style=&quot;font-family: &amp;#34;dejavu sans mono&amp;#34; ; font-size: 9.0000pt&quot;&gt;&lt;br&gt;&lt;/span&gt;&lt;span style=&quot;font-family: &amp;#34;dejavu sans mono&amp;#34; ; font-size: 9.0000pt&quot;&gt;000000e0h:&amp;nbsp;&lt;span style=&quot;background-color: rgb(213 , 232 , 212)&quot;&gt;61&amp;nbsp;7A&amp;nbsp;7A&amp;nbsp;2F&amp;nbsp;54&amp;nbsp;65&amp;nbsp;73&amp;nbsp;74&amp;nbsp;43&amp;nbsp;6C&amp;nbsp;61&amp;nbsp;73&amp;nbsp;73&lt;/span&gt;&amp;nbsp;&lt;span style=&quot;background-color: rgb(248 , 206 , 204)&quot;&gt;01&amp;nbsp;00&amp;nbsp;10&lt;/span&gt;&amp;nbsp;;&amp;nbsp;azz/TestClass...&lt;/span&gt;&lt;span style=&quot;font-family: &amp;#34;dejavu sans mono&amp;#34; ; font-size: 9.0000pt&quot;&gt;&lt;br&gt;&lt;/span&gt;&lt;span style=&quot;font-family: &amp;#34;dejavu sans mono&amp;#34; ; font-size: 9.0000pt&quot;&gt;000000f0h:&amp;nbsp;&lt;span style=&quot;background-color: rgb(248 , 206 , 204)&quot;&gt;6A&amp;nbsp;61&amp;nbsp;76&amp;nbsp;61&amp;nbsp;2F&amp;nbsp;6C&amp;nbsp;61&amp;nbsp;6E&amp;nbsp;67&amp;nbsp;2F&amp;nbsp;4F&amp;nbsp;62&amp;nbsp;6A&amp;nbsp;65&amp;nbsp;63&amp;nbsp;74&lt;/span&gt;&amp;nbsp;;&amp;nbsp;java/lang/Object&lt;/span&gt;&lt;span style=&quot;font-family: &amp;#34;dejavu sans mono&amp;#34; ; font-size: 9.0000pt&quot;&gt;&lt;br&gt;&lt;/span&gt;&lt;span style=&quot;font-family: &amp;#34;dejavu sans mono&amp;#34; ; font-size: 9.0000pt&quot;&gt;00000100h:&amp;nbsp;&lt;span style=&quot;background-color: rgb(126 , 166 , 224)&quot;&gt;01&amp;nbsp;00&amp;nbsp;10&amp;nbsp;6A&amp;nbsp;61&amp;nbsp;76&amp;nbsp;61&amp;nbsp;2F&amp;nbsp;6C&amp;nbsp;61&amp;nbsp;6E&amp;nbsp;67&amp;nbsp;2F&amp;nbsp;53&amp;nbsp;79&amp;nbsp;73&lt;/span&gt;&amp;nbsp;;&amp;nbsp;...java/lang/Sys&lt;/span&gt;&lt;span style=&quot;font-family: &amp;#34;dejavu sans mono&amp;#34; ; font-size: 9.0000pt&quot;&gt;&lt;br&gt;&lt;/span&gt;&lt;span style=&quot;font-family: &amp;#34;dejavu sans mono&amp;#34; ; font-size: 9.0000pt&quot;&gt;00000110h:&amp;nbsp;&lt;span style=&quot;background-color: rgb(126 , 166 , 224)&quot;&gt;74&amp;nbsp;65&amp;nbsp;6D&lt;/span&gt;&amp;nbsp;&lt;span style=&quot;background-color: rgb(255 , 206 , 159)&quot;&gt;01&amp;nbsp;00&amp;nbsp;03&amp;nbsp;6F&amp;nbsp;75&amp;nbsp;74&lt;/span&gt;&amp;nbsp;&lt;span style=&quot;background-color: rgb(169 , 196 , 235)&quot;&gt;01&amp;nbsp;00&amp;nbsp;15&amp;nbsp;4C&amp;nbsp;6A&amp;nbsp;61&amp;nbsp;76&lt;/span&gt;&amp;nbsp;;&amp;nbsp;tem...out...Ljav&lt;/span&gt;&lt;span style=&quot;font-family: &amp;#34;dejavu sans mono&amp;#34; ; font-size: 9.0000pt&quot;&gt;&lt;br&gt;&lt;/span&gt;&lt;span style=&quot;font-family: &amp;#34;dejavu sans mono&amp;#34; ; font-size: 9.0000pt&quot;&gt;00000120h:&amp;nbsp;&lt;span style=&quot;background-color: rgb(169 , 196 , 235)&quot;&gt;61&amp;nbsp;2F&amp;nbsp;69&amp;nbsp;6F&amp;nbsp;2F&amp;nbsp;50&amp;nbsp;6E&amp;nbsp;69&amp;nbsp;74&amp;nbsp;3E&amp;nbsp;01&amp;nbsp;00&amp;nbsp;03&amp;nbsp;28&amp;nbsp;29&amp;nbsp;56&lt;/span&gt;&amp;nbsp;;&amp;nbsp;a/io/Pnit&amp;gt;...()V&lt;/span&gt;&lt;span style=&quot;font-family: &amp;#34;dejavu sans mono&amp;#34; ; font-size: 9.0000pt&quot;&gt;&lt;br&gt;&lt;/span&gt;&lt;span style=&quot;font-family: &amp;#34;dejavu sans mono&amp;#34; ; font-size: 9.0000pt&quot;&gt;00000130h:&amp;nbsp;&lt;span style=&quot;background-color: rgb(255 , 206 , 159)&quot;&gt;01&amp;nbsp;00&amp;nbsp;04&amp;nbsp;43&amp;nbsp;6F&amp;nbsp;64&amp;nbsp;65&lt;/span&gt;&amp;nbsp;&lt;span style=&quot;background-color: rgb(212 , 225 , 245)&quot;&gt;01&amp;nbsp;00&amp;nbsp;0F&amp;nbsp;4C&amp;nbsp;72&amp;nbsp;69&amp;nbsp;6E&amp;nbsp;74&amp;nbsp;53&lt;/span&gt;&amp;nbsp;;&amp;nbsp;...Code...LrintS&lt;/span&gt;&lt;span style=&quot;font-family: &amp;#34;dejavu sans mono&amp;#34; ; font-size: 9.0000pt&quot;&gt;&lt;br&gt;&lt;/span&gt;&lt;span style=&quot;font-family: &amp;#34;dejavu sans mono&amp;#34; ; font-size: 9.0000pt&quot;&gt;00000140h:&amp;nbsp;&lt;span style=&quot;background-color: rgb(212 , 225 , 245)&quot;&gt;74&amp;nbsp;72&amp;nbsp;65&amp;nbsp;61&amp;nbsp;6D&amp;nbsp;3B&lt;/span&gt;&amp;nbsp;&lt;span style=&quot;background-color: rgb(255 , 244 , 195)&quot;&gt;01&amp;nbsp;00&amp;nbsp;13&amp;nbsp;6A&amp;nbsp;61&amp;nbsp;76&amp;nbsp;61&amp;nbsp;2F&amp;nbsp;69&amp;nbsp;6F&lt;/span&gt;&amp;nbsp;;&amp;nbsp;tream;...java/io&lt;/span&gt;&lt;span style=&quot;font-family: &amp;#34;dejavu sans mono&amp;#34; ; font-size: 9.0000pt&quot;&gt;&lt;br&gt;&lt;/span&gt;&lt;span style=&quot;font-family: &amp;#34;dejavu sans mono&amp;#34; ; font-size: 9.0000pt&quot;&gt;00000150h:&amp;nbsp;&lt;span style=&quot;background-color: rgb(255 , 244 , 195)&quot;&gt;2F&amp;nbsp;50&amp;nbsp;72&amp;nbsp;69&amp;nbsp;6E&amp;nbsp;74&amp;nbsp;53&amp;nbsp;74&amp;nbsp;72&amp;nbsp;65&amp;nbsp;61&amp;nbsp;6D&lt;/span&gt;&amp;nbsp;&lt;span style=&quot;background-color: rgb(166 , 128 , 184)&quot;&gt;01&amp;nbsp;00&amp;nbsp;07&amp;nbsp;70&lt;/span&gt;&amp;nbsp;;&amp;nbsp;/PrintStream...p&lt;/span&gt;&lt;span style=&quot;font-family: &amp;#34;dejavu sans mono&amp;#34; ; font-size: 9.0000pt&quot;&gt;&lt;br&gt;&lt;/span&gt;&lt;span style=&quot;font-family: &amp;#34;dejavu sans mono&amp;#34; ; font-size: 9.0000pt&quot;&gt;00000160h:&amp;nbsp;&lt;span style=&quot;background-color: rgb(166 , 128 , 184)&quot;&gt;72&amp;nbsp;69&amp;nbsp;6E&amp;nbsp;74&amp;nbsp;6C&amp;nbsp;6E&lt;/span&gt;&amp;nbsp;&lt;span style=&quot;background-color: rgb(255 , 217 , 102)&quot;&gt;01&amp;nbsp;00&amp;nbsp;04&amp;nbsp;28&amp;nbsp;49&amp;nbsp;29&amp;nbsp;56&lt;/span&gt;&amp;nbsp;&lt;span style=&quot;background-color: rgb(0 , 153 , 0)&quot;&gt;00&amp;nbsp;21&lt;/span&gt;&amp;nbsp;&lt;span style=&quot;background-color: rgb(204 , 0 , 204)&quot;&gt;00&lt;/span&gt;&amp;nbsp;;&amp;nbsp;rintln...(I)V.!.&lt;/span&gt;&lt;span style=&quot;font-family: &amp;#34;dejavu sans mono&amp;#34; ; font-size: 9.0000pt&quot;&gt;&lt;br&gt;&lt;/span&gt;&lt;span style=&quot;font-family: &amp;#34;dejavu sans mono&amp;#34; ; font-size: 9.0000pt&quot;&gt;00000170h:&amp;nbsp;&lt;span style=&quot;background-color: rgb(204 , 0 , 204)&quot;&gt;05&lt;/span&gt;&amp;nbsp;&lt;span style=&quot;background-color: rgb(255 , 122 , 198)&quot;&gt;00&amp;nbsp;06&lt;/span&gt;&amp;nbsp;&lt;span style=&quot;background-color: rgb(243 , 79 , 255)&quot;&gt;0&lt;/span&gt;&lt;span style=&quot;background-color: rgb(243 , 79 , 255)&quot;&gt;0&amp;nbsp;00&lt;/span&gt;&amp;nbsp;&lt;span style=&quot;background-color: rgb(151 , 208 , 119)&quot;&gt;00&amp;nbsp;01&amp;nbsp;00&amp;nbsp;02&amp;nbsp;00&amp;nbsp;07&amp;nbsp;00&amp;nbsp;08&amp;nbsp;00&amp;nbsp;00&lt;/span&gt;&amp;nbsp;&lt;span style=&quot;background-color: rgb(255 , 217 , 102)&quot;&gt;00&lt;/span&gt;&amp;nbsp;;&amp;nbsp;................&lt;/span&gt;&lt;span style=&quot;font-family: &amp;#34;dejavu sans mono&amp;#34; ; font-size: 9.0000pt&quot;&gt;&lt;br&gt;&lt;/span&gt;&lt;span style=&quot;font-family: &amp;#34;dejavu sans mono&amp;#34; ; font-size: 9.0000pt&quot;&gt;00000180h:&amp;nbsp;&lt;span style=&quot;background-color: rgb(255 , 217 , 102)&quot;&gt;02&amp;nbsp;00&amp;nbsp;01&amp;nbsp;00&amp;nbsp;09&amp;nbsp;00&amp;nbsp;0A&amp;nbsp;00&amp;nbsp;01&lt;/span&gt;&lt;span style=&quot;background-color: rgb(255 , 217 , 102)&quot;&gt;&amp;nbsp;00&amp;nbsp;0B&amp;nbsp;&lt;font color=&quot;#ff00ff&quot;&gt;00&amp;nbsp;00&amp;nbsp;00&amp;nbsp;2F&lt;/font&gt;&amp;nbsp;00&lt;/span&gt;&amp;nbsp;;&amp;nbsp;............../.&lt;/span&gt;&lt;span style=&quot;font-family: &amp;#34;dejavu sans mono&amp;#34; ; font-size: 9.0000pt&quot;&gt;&lt;br&gt;&lt;/span&gt;&lt;span style=&quot;font-family: &amp;#34;dejavu sans mono&amp;#34; ; font-size: 9.0000pt&quot;&gt;00000190h:&amp;nbsp;&lt;span style=&quot;background-color: rgb(255 , 217 , 102)&quot;&gt;01&amp;nbsp;00&amp;nbsp;01&amp;nbsp;&lt;font color=&quot;#ff0080&quot;&gt;00&amp;nbsp;00&amp;nbsp;00&amp;nbsp;05&lt;/font&gt;&lt;/span&gt;&lt;span style=&quot;background-color: rgb(255 , 217 , 102)&quot;&gt;&amp;nbsp;&lt;font color=&quot;#6600cc&quot;&gt;2A&amp;nbsp;B7&amp;nbsp;00&amp;nbsp;01&amp;nbsp;B1&lt;/font&gt;&lt;/span&gt;&lt;span style=&quot;background-color: rgb(255 , 217 , 102)&quot;&gt;&amp;nbsp;00&amp;nbsp;00&amp;nbsp;00&amp;nbsp;02&lt;/span&gt;&amp;nbsp;;&amp;nbsp;.......*·..±....&lt;/span&gt;&lt;span style=&quot;font-family: &amp;#34;dejavu sans mono&amp;#34; ; font-size: 9.0000pt&quot;&gt;&lt;br&gt;&lt;/span&gt;&lt;span style=&quot;font-family: &amp;#34;dejavu sans mono&amp;#34; ; font-size: 9.0000pt&quot;&gt;000001a0h:&amp;nbsp;&lt;span style=&quot;background-color: rgb(255 , 217 , 102)&quot;&gt;00&amp;nbsp;0C&amp;nbsp;00&amp;nbsp;00&amp;nbsp;00&amp;nbsp;06&amp;nbsp;00&amp;nbsp;01&amp;nbsp;&lt;/span&gt;&lt;span style=&quot;background-color: rgb(204 , 0 , 0)&quot;&gt;00&amp;nbsp;00&lt;/span&gt;&lt;span style=&quot;background-color: rgb(255 , 217 , 102)&quot;&gt;&amp;nbsp;00&amp;nbsp;03&lt;/span&gt;&lt;span style=&quot;background-color: rgb(255 , 217 , 102)&quot;&gt;&amp;nbsp;&lt;font color=&quot;#ff0080&quot;&gt;00&amp;nbsp;0D&lt;/font&gt;&amp;nbsp;00&amp;nbsp;00&lt;/span&gt;&amp;nbsp;;&amp;nbsp;................&lt;/span&gt;&lt;span style=&quot;font-family: &amp;#34;dejavu sans mono&amp;#34; ; font-size: 9.0000pt&quot;&gt;&lt;br&gt;&lt;/span&gt;&lt;span style=&quot;font-family: &amp;#34;dejavu sans mono&amp;#34; ; font-size: 9.0000pt&quot;&gt;000001b0h:&amp;nbsp;&lt;span style=&quot;background-color: rgb(255 , 217 , 102)&quot;&gt;00&amp;nbsp;0C&amp;nbsp;00&amp;nbsp;01&amp;nbsp;00&amp;nbsp;00&amp;nbsp;00&amp;nbsp;05&amp;nbsp;00&amp;nbsp;0E&amp;nbsp;00&amp;nbsp;0F&amp;nbsp;&lt;font color=&quot;#cc0066&quot;&gt;00&amp;nbsp;00&lt;/font&gt;&amp;nbsp;&lt;font color=&quot;#0000ff&quot;&gt;&lt;b&gt;00&amp;nbsp;01&lt;/b&gt;&lt;/font&gt;&lt;/span&gt;&amp;nbsp;;&amp;nbsp;................&lt;/span&gt;&lt;span style=&quot;font-family: &amp;#34;dejavu sans mono&amp;#34; ; font-size: 9.0000pt&quot;&gt;&lt;br&gt;&lt;/span&gt;&lt;span style=&quot;font-family: &amp;#34;dejavu sans mono&amp;#34; ; font-size: 9.0000pt&quot;&gt;000001c0h:&amp;nbsp;00&amp;nbsp;10&amp;nbsp;00&amp;nbsp;11&amp;nbsp;00&amp;nbsp;01&amp;nbsp;00&amp;nbsp;0B&amp;nbsp;00&amp;nbsp;00&amp;nbsp;00&amp;nbsp;3D&amp;nbsp;00&amp;nbsp;02&amp;nbsp;00&amp;nbsp;01&amp;nbsp;;&amp;nbsp;...........=....&lt;/span&gt;&lt;span style=&quot;font-family: &amp;#34;dejavu sans mono&amp;#34; ; font-size: 9.0000pt&quot;&gt;&lt;br&gt;&lt;/span&gt;&lt;span style=&quot;font-family: &amp;#34;dejavu sans mono&amp;#34; ; font-size: 9.0000pt&quot;&gt;000001d0h:&amp;nbsp;00&amp;nbsp;00&amp;nbsp;00&amp;nbsp;0F&amp;nbsp;B2&amp;nbsp;00&amp;nbsp;02&amp;nbsp;2A&amp;nbsp;B4&amp;nbsp;00&amp;nbsp;03&amp;nbsp;B6&amp;nbsp;00&amp;nbsp;04&amp;nbsp;2A&amp;nbsp;B4&amp;nbsp;;&amp;nbsp;....²..*´..¶..*´&lt;/span&gt;&lt;span style=&quot;font-family: &amp;#34;dejavu sans mono&amp;#34; ; font-size: 9.0000pt&quot;&gt;&lt;br&gt;&lt;/span&gt;&lt;span style=&quot;font-family: &amp;#34;dejavu sans mono&amp;#34; ; font-size: 9.0000pt&quot;&gt;000001e0h:&amp;nbsp;00&amp;nbsp;03&amp;nbsp;AC&amp;nbsp;00&amp;nbsp;00&amp;nbsp;00&amp;nbsp;02&amp;nbsp;00&amp;nbsp;0C&amp;nbsp;00&amp;nbsp;00&amp;nbsp;00&amp;nbsp;0A&amp;nbsp;00&amp;nbsp;02&amp;nbsp;00&amp;nbsp;;&amp;nbsp;..¬.............&lt;/span&gt;&lt;span style=&quot;font-family: &amp;#34;dejavu sans mono&amp;#34; ; font-size: 9.0000pt&quot;&gt;&lt;br&gt;&lt;/span&gt;&lt;span style=&quot;font-family: &amp;#34;dejavu sans mono&amp;#34; ; font-size: 9.0000pt&quot;&gt;000001f0h:&amp;nbsp;00&amp;nbsp;00&amp;nbsp;08&amp;nbsp;00&amp;nbsp;0A&amp;nbsp;00&amp;nbsp;09&amp;nbsp;00&amp;nbsp;0D&amp;nbsp;00&amp;nbsp;00&amp;nbsp;00&amp;nbsp;0C&amp;nbsp;00&amp;nbsp;01&amp;nbsp;00&amp;nbsp;;&amp;nbsp;................&lt;/span&gt;&lt;span style=&quot;font-family: &amp;#34;dejavu sans mono&amp;#34; ; font-size: 9.0000pt&quot;&gt;&lt;br&gt;&lt;/span&gt;&lt;span style=&quot;font-family: &amp;#34;dejavu sans mono&amp;#34; ; font-size: 9.0000pt&quot;&gt;00000200h:&amp;nbsp;00&amp;nbsp;00&amp;nbsp;0F&amp;nbsp;00&amp;nbsp;0E&amp;nbsp;00&amp;nbsp;0F&amp;nbsp;00&amp;nbsp;00&amp;nbsp;00&amp;nbsp;01&amp;nbsp;00&amp;nbsp;12&amp;nbsp;00&amp;nbsp;00&amp;nbsp;00&amp;nbsp;;&amp;nbsp;................&lt;/span&gt;&lt;span style=&quot;font-family: &amp;#34;dejavu sans mono&amp;#34; ; font-size: 9.0000pt&quot;&gt;&lt;br&gt;&lt;/span&gt;&lt;span style=&quot;font-family: &amp;#34;dejavu sans mono&amp;#34; ; font-size: 9.0000pt&quot;&gt;00000210h:&amp;nbsp;02&amp;nbsp;00&amp;nbsp;13&amp;nbsp;6E&amp;nbsp;69&amp;nbsp;74&amp;nbsp;3E&amp;nbsp;01&amp;nbsp;00&amp;nbsp;03&amp;nbsp;28&amp;nbsp;29&amp;nbsp;56&amp;nbsp;01&amp;nbsp;00&amp;nbsp;04&amp;nbsp;;&amp;nbsp;...nit&amp;gt;...()V...&lt;/span&gt;&lt;span style=&quot;font-family: &amp;#34;dejavu sans mono&amp;#34; ; font-size: 9.0000pt&quot;&gt;&lt;br&gt;&lt;/span&gt;&lt;span style=&quot;font-family: &amp;#34;dejavu sans mono&amp;#34; ; font-size: 9.0000pt&quot;&gt;00000220h:&amp;nbsp;43&amp;nbsp;6F&amp;nbsp;64&amp;nbsp;65&amp;nbsp;01&amp;nbsp;00&amp;nbsp;0F&amp;nbsp;4C&amp;nbsp;6E&amp;nbsp;69&amp;nbsp;74&amp;nbsp;3E&amp;nbsp;01&amp;nbsp;00&amp;nbsp;03&amp;nbsp;28&amp;nbsp;;&amp;nbsp;Code...Lnit&amp;gt;...(&lt;/span&gt;&lt;span style=&quot;font-family: &amp;#34;dejavu sans mono&amp;#34; ; font-size: 9.0000pt&quot;&gt;&lt;br&gt;&lt;/span&gt;&lt;span style=&quot;font-family: &amp;#34;dejavu sans mono&amp;#34; ; font-size: 9.0000pt&quot;&gt;00000230h:&amp;nbsp;29&amp;nbsp;56&amp;nbsp;01&amp;nbsp;00&amp;nbsp;04&amp;nbsp;43&amp;nbsp;6F&amp;nbsp;64&amp;nbsp;65&amp;nbsp;01&amp;nbsp;00&amp;nbsp;0F&amp;nbsp;4C&amp;nbsp;&amp;nbsp;&amp;nbsp;&amp;nbsp;&amp;nbsp;&amp;nbsp;&amp;nbsp;&amp;nbsp;&amp;nbsp;&amp;nbsp;;&amp;nbsp;)V...Code...L&lt;/span&gt;&lt;span style=&quot;font-family: &amp;#34;dejavu sans mono&amp;#34; ; font-size: 9.0000pt&quot;&gt;&lt;/span&gt;&lt;/p&gt;" style="text;whiteSpace=wrap;html=1;fontSize=14;fontFamily=Verdana;" parent="1" vertex="1">
          <mxGeometry x="-37" y="1865" width="670" height="721" as="geometry" />
        </mxCell>
        <mxCell id="31JTc4GcEN89d1lP_IlO-6" style="edgeStyle=orthogonalEdgeStyle;rounded=0;orthogonalLoop=1;jettySize=auto;html=1;fontFamily=Verdana;fontSize=14;exitX=0.187;exitY=0.03;exitDx=0;exitDy=0;exitPerimeter=0;" parent="1" source="31JTc4GcEN89d1lP_IlO-4" target="31JTc4GcEN89d1lP_IlO-5" edge="1">
          <mxGeometry relative="1" as="geometry">
            <mxPoint x="145" y="1847" as="targetPoint" />
            <mxPoint x="49" y="1845" as="sourcePoint" />
            <Array as="points">
              <mxPoint x="88" y="1862" />
              <mxPoint x="552" y="1862" />
            </Array>
          </mxGeometry>
        </mxCell>
        <mxCell id="31JTc4GcEN89d1lP_IlO-5" value="&lt;font style=&quot;background-color: rgb(255, 204, 153); font-size: 12px;&quot;&gt;魔数&lt;/font&gt;" style="text;html=1;align=center;verticalAlign=middle;resizable=0;points=[];autosize=1;fontSize=12;fontFamily=Verdana;" parent="1" vertex="1">
          <mxGeometry x="535" y="1888" width="34" height="18" as="geometry" />
        </mxCell>
        <mxCell id="31JTc4GcEN89d1lP_IlO-8" value="&lt;span style=&quot;background-color: rgb(204, 255, 153); font-size: 12px;&quot;&gt;次版本号与主版本号&lt;/span&gt;" style="text;html=1;align=center;verticalAlign=middle;resizable=0;points=[];autosize=1;fontSize=12;fontFamily=Verdana;" parent="1" vertex="1">
          <mxGeometry x="566" y="1888" width="118" height="18" as="geometry" />
        </mxCell>
        <mxCell id="31JTc4GcEN89d1lP_IlO-9" style="edgeStyle=orthogonalEdgeStyle;rounded=0;orthogonalLoop=1;jettySize=auto;html=1;fontFamily=Verdana;fontSize=14;entryX=0.441;entryY=-0.048;entryDx=0;entryDy=0;entryPerimeter=0;exitX=0.321;exitY=0.037;exitDx=0;exitDy=0;exitPerimeter=0;" parent="1" source="31JTc4GcEN89d1lP_IlO-4" target="31JTc4GcEN89d1lP_IlO-8" edge="1">
          <mxGeometry relative="1" as="geometry">
            <mxPoint x="653" y="1898" as="targetPoint" />
            <mxPoint x="171" y="1877" as="sourcePoint" />
            <Array as="points">
              <mxPoint x="178" y="1854" />
              <mxPoint x="618" y="1854" />
            </Array>
          </mxGeometry>
        </mxCell>
        <mxCell id="31JTc4GcEN89d1lP_IlO-10" value="&lt;span style=&quot;background-color: rgb(102, 178, 255); font-size: 12px;&quot;&gt;常量池计数值&lt;/span&gt;" style="text;html=1;align=center;verticalAlign=middle;resizable=0;points=[];autosize=1;fontSize=12;fontFamily=Verdana;" parent="1" vertex="1">
          <mxGeometry x="682" y="1888" width="82" height="18" as="geometry" />
        </mxCell>
        <mxCell id="31JTc4GcEN89d1lP_IlO-11" style="edgeStyle=orthogonalEdgeStyle;rounded=0;orthogonalLoop=1;jettySize=auto;html=1;fontFamily=Verdana;fontSize=14;" parent="1" edge="1">
          <mxGeometry relative="1" as="geometry">
            <mxPoint x="854" y="1888" as="targetPoint" />
            <mxPoint x="288" y="1888" as="sourcePoint" />
            <Array as="points">
              <mxPoint x="288" y="1835" />
              <mxPoint x="854" y="1835" />
            </Array>
          </mxGeometry>
        </mxCell>
        <mxCell id="31JTc4GcEN89d1lP_IlO-12" style="edgeStyle=orthogonalEdgeStyle;rounded=0;orthogonalLoop=1;jettySize=auto;html=1;fontFamily=Verdana;fontSize=14;" parent="1" target="31JTc4GcEN89d1lP_IlO-10" edge="1">
          <mxGeometry relative="1" as="geometry">
            <mxPoint x="803" y="1885" as="targetPoint" />
            <mxPoint x="237" y="1885" as="sourcePoint" />
            <Array as="points">
              <mxPoint x="237" y="1844" />
              <mxPoint x="723" y="1844" />
            </Array>
          </mxGeometry>
        </mxCell>
        <mxCell id="31JTc4GcEN89d1lP_IlO-13" value="&lt;span style=&quot;background-color: rgb(255 , 102 , 255) ; font-size: 12px&quot;&gt;0A:Methodref; 06:第6项且是Class;14:第20项且是NameAndType&lt;/span&gt;" style="text;html=1;align=center;verticalAlign=middle;resizable=0;points=[];autosize=1;fontSize=12;fontFamily=Verdana;" parent="1" vertex="1">
          <mxGeometry x="762" y="1888" width="385" height="18" as="geometry" />
        </mxCell>
        <mxCell id="31JTc4GcEN89d1lP_IlO-14" value="&lt;span style=&quot;font-size: 12px ; background-color: rgb(255 , 102 , 102)&quot;&gt;09:Fieldref; 15:第21项且是Class;14:第22项且是NameAndType&lt;/span&gt;" style="text;html=1;align=center;verticalAlign=middle;resizable=0;points=[];autosize=1;fontSize=12;fontFamily=Verdana;" parent="1" vertex="1">
          <mxGeometry x="533" y="1907" width="376" height="18" as="geometry" />
        </mxCell>
        <mxCell id="31JTc4GcEN89d1lP_IlO-15" value="&lt;span style=&quot;background-color: rgb(255 , 153 , 153)&quot;&gt;同第2项，省略&lt;/span&gt;" style="text;html=1;align=center;verticalAlign=middle;resizable=0;points=[];autosize=1;fontSize=12;fontFamily=Verdana;" parent="1" vertex="1">
          <mxGeometry x="901" y="1907" width="90" height="18" as="geometry" />
        </mxCell>
        <mxCell id="31JTc4GcEN89d1lP_IlO-16" value="&lt;span style=&quot;background-color: rgb(255 , 153 , 255)&quot;&gt;同第1项，省略&lt;/span&gt;" style="text;html=1;align=center;verticalAlign=middle;resizable=0;points=[];autosize=1;fontSize=12;fontFamily=Verdana;" parent="1" vertex="1">
          <mxGeometry x="982" y="1907" width="90" height="18" as="geometry" />
        </mxCell>
        <mxCell id="31JTc4GcEN89d1lP_IlO-17" value="&lt;span style=&quot;background-color: rgb(255 , 255 , 102)&quot;&gt;07:Class;1A:第26项且是Utf8&lt;/span&gt;" style="text;html=1;align=center;verticalAlign=middle;resizable=0;points=[];autosize=1;fontSize=12;fontFamily=Verdana;" parent="1" vertex="1">
          <mxGeometry x="533" y="1927" width="177" height="18" as="geometry" />
        </mxCell>
        <mxCell id="31JTc4GcEN89d1lP_IlO-18" value="&lt;span style=&quot;background-color: rgb(255 , 228 , 166)&quot;&gt;同第5项，省略&lt;/span&gt;" style="text;html=1;align=center;verticalAlign=middle;resizable=0;points=[];autosize=1;fontSize=12;fontFamily=Verdana;" parent="1" vertex="1">
          <mxGeometry x="703" y="1927" width="90" height="18" as="geometry" />
        </mxCell>
        <mxCell id="31JTc4GcEN89d1lP_IlO-19" value="&lt;span style=&quot;font-size: 12px ; background-color: rgb(178 , 102 , 255)&quot;&gt;01:Utf8; 03:长度为3个字节;61:编码对应的值为a;67:为g;65:为e&lt;/span&gt;" style="text;html=1;align=center;verticalAlign=middle;resizable=0;points=[];autosize=1;fontSize=12;fontFamily=Verdana;" parent="1" vertex="1">
          <mxGeometry x="785" y="1927" width="374" height="18" as="geometry" />
        </mxCell>
        <mxCell id="31JTc4GcEN89d1lP_IlO-20" value="&lt;span style=&quot;background-color: rgb(255 , 51 , 51)&quot;&gt;0C:NameAndType;09:第9项且是Utf8;0A:第10项且是utf8&lt;/span&gt;" style="text;html=1;align=center;verticalAlign=middle;resizable=0;points=[];autosize=1;fontSize=12;fontFamily=Verdana;" parent="1" vertex="1">
          <mxGeometry x="535" y="2097" width="339" height="18" as="geometry" />
        </mxCell>
        <mxCell id="31JTc4GcEN89d1lP_IlO-21" value="&lt;p style=&quot;line-height: 150%&quot;&gt;&lt;font color=&quot;#000000&quot;&gt;其他 8 ~19 项都是 Utf8 类型，故省略&lt;br&gt;这里的 Utf8 用的是缩略码，它与普通缩略码的区别是：&lt;br&gt;从 &#39;\u0001&#39; 到&amp;nbsp;&lt;/font&gt;&lt;span style=&quot;color: rgb(0 , 0 , 0)&quot;&gt;&#39;\u007f&#39; 的缩略码用一个字节表示&lt;br&gt;&lt;/span&gt;&lt;font color=&quot;#000000&quot;&gt;从&amp;nbsp;&lt;/font&gt;&lt;span style=&quot;color: rgb(0 , 0 , 0)&quot;&gt;&#39;\u0080&#39; 到&amp;nbsp;&lt;/span&gt;&lt;span style=&quot;color: rgb(0 , 0 , 0)&quot;&gt;&#39;\u07ff&#39; 的缩略码用两个字节表示&lt;br&gt;&lt;/span&gt;&lt;font color=&quot;#000000&quot;&gt;从&amp;nbsp;&lt;/font&gt;&lt;span style=&quot;color: rgb(0 , 0 , 0)&quot;&gt;&#39;\u0800&#39; 到&amp;nbsp;&lt;/span&gt;&lt;span style=&quot;color: rgb(0 , 0 , 0)&quot;&gt;&#39;\uffff&#39; 按照普通规则3个字节表示&lt;/span&gt;&lt;font color=&quot;#000000&quot;&gt;&lt;br&gt;&lt;/font&gt;&lt;/p&gt;" style="text;html=1;align=left;verticalAlign=middle;resizable=0;points=[];autosize=1;fontSize=12;fontFamily=Verdana;fontColor=#FFCC99;" parent="1" vertex="1">
          <mxGeometry x="573" y="1941" width="308" height="118" as="geometry" />
        </mxCell>
        <mxCell id="31JTc4GcEN89d1lP_IlO-22" value="&lt;font color=&quot;#000000&quot; style=&quot;line-height: 140%&quot;&gt;另外，由于 Utf8 的长度用 u2 类型表示，&lt;br&gt;进而限定方法、字段名的最大长度为：2^16 = 64KB&lt;/font&gt;" style="text;html=1;align=left;verticalAlign=middle;resizable=0;points=[];autosize=1;fontSize=12;fontFamily=Verdana;fontColor=#FFCC99;" parent="1" vertex="1">
          <mxGeometry x="572.5" y="2053" width="297" height="36" as="geometry" />
        </mxCell>
        <mxCell id="31JTc4GcEN89d1lP_IlO-23" value="&lt;span style=&quot;background-color: rgb(255 , 228 , 166)&quot;&gt;同第5项，省略&lt;/span&gt;" style="text;html=1;align=center;verticalAlign=middle;resizable=0;points=[];autosize=1;fontSize=12;fontFamily=Verdana;" parent="1" vertex="1">
          <mxGeometry x="867" y="2097" width="90" height="18" as="geometry" />
        </mxCell>
        <mxCell id="31JTc4GcEN89d1lP_IlO-24" value="&lt;span style=&quot;background-color: rgb(0 , 153 , 0)&quot;&gt;访问标志&lt;/span&gt;" style="text;html=1;align=center;verticalAlign=middle;resizable=0;points=[];autosize=1;fontSize=12;fontFamily=Verdana;" parent="1" vertex="1">
          <mxGeometry x="537" y="2307" width="58" height="18" as="geometry" />
        </mxCell>
        <mxCell id="31JTc4GcEN89d1lP_IlO-25" value="&lt;p style=&quot;line-height: 160%&quot;&gt;&lt;span style=&quot;font-family: &amp;#34;verdana&amp;#34;&quot;&gt;其他 21 ~33 项都有相同类型，故省略&lt;/span&gt;&lt;br&gt;&lt;/p&gt;&lt;p style=&quot;line-height: 160%&quot;&gt;Integer、Float、Long、Double、String&lt;br&gt;InterfaceMethodref：接口中方法的符号引用 u1:16，u2：Class，u2：NameAndType&lt;br&gt;MethodHandle：方法句柄 u1：15，u1：句柄类型，u2: 常量池索引&lt;br&gt;MehtodType：方法类型 u1：16，u2: utf8 表示方法描述符&lt;br&gt;Dynamic：动态计算常量&amp;nbsp;&amp;nbsp;u1:17，u2：引导方法表中的 bootstrap_methods[]索引，u2：NameAndType&lt;br&gt;InvokeDynamin：动态方法调用 u1:18，u2：引导方法表中的 bootstrap_methods[]索引，u2：NameAndType&lt;br&gt;Module：一个模块 u1：19，u2: utf8 表示模块名称&lt;br&gt;Package：一个模块中开放或者导出的包 u1：20，u2: utf8 表示包名称&lt;/p&gt;" style="text;html=1;align=left;verticalAlign=middle;resizable=0;points=[];autosize=1;fontSize=12;fontFamily=Verdana;" parent="1" vertex="1">
          <mxGeometry x="548" y="2105" width="634" height="211" as="geometry" />
        </mxCell>
        <mxCell id="31JTc4GcEN89d1lP_IlO-30" value="&lt;span style=&quot;background-color: rgb(204 , 0 , 204)&quot;&gt;类索引&lt;/span&gt;" style="text;html=1;align=center;verticalAlign=middle;resizable=0;points=[];autosize=1;fontSize=12;fontFamily=Verdana;" parent="1" vertex="1">
          <mxGeometry x="537" y="2325" width="46" height="18" as="geometry" />
        </mxCell>
        <mxCell id="31JTc4GcEN89d1lP_IlO-31" value="&lt;span style=&quot;background-color: rgb(255 , 122 , 198)&quot;&gt;父类索引&lt;/span&gt;" style="text;html=1;align=center;verticalAlign=middle;resizable=0;points=[];autosize=1;fontSize=12;fontFamily=Verdana;" parent="1" vertex="1">
          <mxGeometry x="576" y="2325" width="58" height="18" as="geometry" />
        </mxCell>
        <mxCell id="31JTc4GcEN89d1lP_IlO-32" value="&lt;span style=&quot;background-color: rgb(243 , 79 , 255)&quot;&gt;接口索引集合，00表示没有实现接口&lt;/span&gt;" style="text;html=1;align=center;verticalAlign=middle;resizable=0;points=[];autosize=1;fontSize=12;fontFamily=Verdana;" parent="1" vertex="1">
          <mxGeometry x="627" y="2325" width="205" height="18" as="geometry" />
        </mxCell>
        <mxCell id="3oE3Q5OzXbJSzto1YcGy-1" value="" style="shape=table;html=1;whiteSpace=wrap;startSize=0;container=1;collapsible=0;childLayout=tableLayout;fillColor=#ffe6cc;strokeColor=#d79b00;" parent="1" vertex="1">
          <mxGeometry x="389" y="981" width="480" height="40" as="geometry" />
        </mxCell>
        <mxCell id="3oE3Q5OzXbJSzto1YcGy-2" value="" style="shape=partialRectangle;html=1;whiteSpace=wrap;collapsible=0;dropTarget=0;pointerEvents=0;fillColor=none;top=0;left=0;bottom=0;right=0;points=[[0,0.5],[1,0.5]];portConstraint=eastwest;" parent="3oE3Q5OzXbJSzto1YcGy-1" vertex="1">
          <mxGeometry width="480" height="40" as="geometry" />
        </mxCell>
        <mxCell id="3oE3Q5OzXbJSzto1YcGy-3" value="&lt;span&gt;0x0080&lt;/span&gt;" style="shape=partialRectangle;html=1;whiteSpace=wrap;connectable=0;overflow=hidden;fillColor=none;top=0;left=0;bottom=0;right=0;" parent="3oE3Q5OzXbJSzto1YcGy-2" vertex="1">
          <mxGeometry width="60" height="40" as="geometry" />
        </mxCell>
        <mxCell id="3oE3Q5OzXbJSzto1YcGy-4" value="&lt;span&gt;0x0040&lt;/span&gt;" style="shape=partialRectangle;html=1;whiteSpace=wrap;connectable=0;overflow=hidden;fillColor=none;top=0;left=0;bottom=0;right=0;" parent="3oE3Q5OzXbJSzto1YcGy-2" vertex="1">
          <mxGeometry x="60" width="60" height="40" as="geometry" />
        </mxCell>
        <mxCell id="3oE3Q5OzXbJSzto1YcGy-5" value="" style="shape=partialRectangle;html=1;whiteSpace=wrap;connectable=0;overflow=hidden;fillColor=none;top=0;left=0;bottom=0;right=0;" parent="3oE3Q5OzXbJSzto1YcGy-2" vertex="1">
          <mxGeometry x="120" width="60" height="40" as="geometry" />
        </mxCell>
        <mxCell id="3oE3Q5OzXbJSzto1YcGy-6" value="&lt;span&gt;0x0010&lt;/span&gt;" style="shape=partialRectangle;html=1;whiteSpace=wrap;connectable=0;overflow=hidden;fillColor=none;top=0;left=0;bottom=0;right=0;" parent="3oE3Q5OzXbJSzto1YcGy-2" vertex="1">
          <mxGeometry x="180" width="60" height="40" as="geometry" />
        </mxCell>
        <mxCell id="3oE3Q5OzXbJSzto1YcGy-7" value="&lt;span&gt;0x0008&lt;/span&gt;" style="shape=partialRectangle;html=1;whiteSpace=wrap;connectable=0;overflow=hidden;fillColor=none;top=0;left=0;bottom=0;right=0;" parent="3oE3Q5OzXbJSzto1YcGy-2" vertex="1">
          <mxGeometry x="240" width="60" height="40" as="geometry" />
        </mxCell>
        <mxCell id="3oE3Q5OzXbJSzto1YcGy-8" value="&lt;span&gt;0x0004&lt;/span&gt;" style="shape=partialRectangle;html=1;whiteSpace=wrap;connectable=0;overflow=hidden;fillColor=none;top=0;left=0;bottom=0;right=0;" parent="3oE3Q5OzXbJSzto1YcGy-2" vertex="1">
          <mxGeometry x="300" width="60" height="40" as="geometry" />
        </mxCell>
        <mxCell id="3oE3Q5OzXbJSzto1YcGy-9" value="&lt;span&gt;0x0002&lt;/span&gt;" style="shape=partialRectangle;html=1;whiteSpace=wrap;connectable=0;overflow=hidden;fillColor=none;top=0;left=0;bottom=0;right=0;" parent="3oE3Q5OzXbJSzto1YcGy-2" vertex="1">
          <mxGeometry x="360" width="60" height="40" as="geometry" />
        </mxCell>
        <mxCell id="3oE3Q5OzXbJSzto1YcGy-10" value="&lt;span&gt;0x0001&lt;/span&gt;" style="shape=partialRectangle;html=1;whiteSpace=wrap;connectable=0;overflow=hidden;fillColor=none;top=0;left=0;bottom=0;right=0;" parent="3oE3Q5OzXbJSzto1YcGy-2" vertex="1">
          <mxGeometry x="420" width="60" height="40" as="geometry" />
        </mxCell>
        <mxCell id="3oE3Q5OzXbJSzto1YcGy-11" value="" style="shape=table;html=1;whiteSpace=wrap;startSize=0;container=1;collapsible=0;childLayout=tableLayout;fillColor=#dae8fc;strokeColor=#6c8ebf;" parent="1" vertex="1">
          <mxGeometry x="-91" y="981" width="480" height="40" as="geometry" />
        </mxCell>
        <mxCell id="3oE3Q5OzXbJSzto1YcGy-12" value="" style="shape=partialRectangle;html=1;whiteSpace=wrap;collapsible=0;dropTarget=0;pointerEvents=0;fillColor=none;top=0;left=0;bottom=0;right=0;points=[[0,0.5],[1,0.5]];portConstraint=eastwest;" parent="3oE3Q5OzXbJSzto1YcGy-11" vertex="1">
          <mxGeometry width="480" height="40" as="geometry" />
        </mxCell>
        <mxCell id="3oE3Q5OzXbJSzto1YcGy-13" value="" style="shape=partialRectangle;html=1;whiteSpace=wrap;connectable=0;overflow=hidden;fillColor=none;top=0;left=0;bottom=0;right=0;" parent="3oE3Q5OzXbJSzto1YcGy-12" vertex="1">
          <mxGeometry width="60" height="40" as="geometry" />
        </mxCell>
        <mxCell id="3oE3Q5OzXbJSzto1YcGy-14" value="&lt;span&gt;0x4000&lt;/span&gt;" style="shape=partialRectangle;html=1;whiteSpace=wrap;connectable=0;overflow=hidden;fillColor=none;top=0;left=0;bottom=0;right=0;" parent="3oE3Q5OzXbJSzto1YcGy-12" vertex="1">
          <mxGeometry x="60" width="60" height="40" as="geometry" />
        </mxCell>
        <mxCell id="3oE3Q5OzXbJSzto1YcGy-15" value="" style="shape=partialRectangle;html=1;whiteSpace=wrap;connectable=0;overflow=hidden;fillColor=none;top=0;left=0;bottom=0;right=0;" parent="3oE3Q5OzXbJSzto1YcGy-12" vertex="1">
          <mxGeometry x="120" width="60" height="40" as="geometry" />
        </mxCell>
        <mxCell id="3oE3Q5OzXbJSzto1YcGy-16" value="&lt;span&gt;0x1000&lt;/span&gt;" style="shape=partialRectangle;html=1;whiteSpace=wrap;connectable=0;overflow=hidden;fillColor=none;top=0;left=0;bottom=0;right=0;" parent="3oE3Q5OzXbJSzto1YcGy-12" vertex="1">
          <mxGeometry x="180" width="60" height="40" as="geometry" />
        </mxCell>
        <mxCell id="3oE3Q5OzXbJSzto1YcGy-17" value="" style="shape=partialRectangle;html=1;whiteSpace=wrap;connectable=0;overflow=hidden;fillColor=none;top=0;left=0;bottom=0;right=0;" parent="3oE3Q5OzXbJSzto1YcGy-12" vertex="1">
          <mxGeometry x="240" width="60" height="40" as="geometry" />
        </mxCell>
        <mxCell id="3oE3Q5OzXbJSzto1YcGy-18" value="" style="shape=partialRectangle;html=1;whiteSpace=wrap;connectable=0;overflow=hidden;fillColor=none;top=0;left=0;bottom=0;right=0;" parent="3oE3Q5OzXbJSzto1YcGy-12" vertex="1">
          <mxGeometry x="300" width="60" height="40" as="geometry" />
        </mxCell>
        <mxCell id="3oE3Q5OzXbJSzto1YcGy-19" value="" style="shape=partialRectangle;html=1;whiteSpace=wrap;connectable=0;overflow=hidden;fillColor=none;top=0;left=0;bottom=0;right=0;" parent="3oE3Q5OzXbJSzto1YcGy-12" vertex="1">
          <mxGeometry x="360" width="60" height="40" as="geometry" />
        </mxCell>
        <mxCell id="3oE3Q5OzXbJSzto1YcGy-20" value="" style="shape=partialRectangle;html=1;whiteSpace=wrap;connectable=0;overflow=hidden;fillColor=none;top=0;left=0;bottom=0;right=0;" parent="3oE3Q5OzXbJSzto1YcGy-12" vertex="1">
          <mxGeometry x="420" width="60" height="40" as="geometry" />
        </mxCell>
        <mxCell id="3oE3Q5OzXbJSzto1YcGy-38" value="&lt;span style=&quot;text-indent: 24px ; line-height: 140%&quot;&gt;&lt;font style=&quot;font-size: 8px&quot;&gt;ACC_PUBLIC&lt;/font&gt;&lt;br&gt;&lt;/span&gt;" style="text;html=1;align=left;verticalAlign=middle;resizable=0;points=[];autosize=1;" parent="1" vertex="1">
          <mxGeometry x="800.5" y="1025" width="85" height="20" as="geometry" />
        </mxCell>
        <mxCell id="3oE3Q5OzXbJSzto1YcGy-59" value="&lt;span style=&quot;text-indent: 24px ; line-height: 140%&quot;&gt;&lt;font style=&quot;font-size: 8px&quot;&gt;ACC_PRIVATE&lt;/font&gt;&lt;br&gt;&lt;/span&gt;" style="text;html=1;align=left;verticalAlign=middle;resizable=0;points=[];autosize=1;" parent="1" vertex="1">
          <mxGeometry x="737.5" y="955" width="92" height="20" as="geometry" />
        </mxCell>
        <mxCell id="3oE3Q5OzXbJSzto1YcGy-60" value="&lt;span style=&quot;text-indent: 24px ; line-height: 140%&quot;&gt;&lt;font style=&quot;font-size: 8px&quot;&gt;ACC_PROTECTED&lt;/font&gt;&lt;br&gt;&lt;/span&gt;" style="text;html=1;align=left;verticalAlign=middle;resizable=0;points=[];autosize=1;" parent="1" vertex="1">
          <mxGeometry x="664.5" y="1025" width="116" height="20" as="geometry" />
        </mxCell>
        <mxCell id="3oE3Q5OzXbJSzto1YcGy-61" value="&lt;span style=&quot;text-indent: 24px ; line-height: 140%&quot;&gt;&lt;font style=&quot;font-size: 8px&quot;&gt;ACC_STATIC&lt;/font&gt;&lt;br&gt;&lt;/span&gt;" style="text;html=1;align=left;verticalAlign=middle;resizable=0;points=[];autosize=1;" parent="1" vertex="1">
          <mxGeometry x="616.5" y="955" width="83" height="20" as="geometry" />
        </mxCell>
        <mxCell id="3oE3Q5OzXbJSzto1YcGy-62" value="&lt;span style=&quot;text-indent: 24px ; line-height: 140%&quot;&gt;&lt;font style=&quot;font-size: 8px&quot;&gt;ACC_FINAL&lt;/font&gt;&lt;br&gt;&lt;/span&gt;" style="text;html=1;align=left;verticalAlign=middle;resizable=0;points=[];autosize=1;" parent="1" vertex="1">
          <mxGeometry x="568" y="1025" width="76" height="20" as="geometry" />
        </mxCell>
        <mxCell id="3oE3Q5OzXbJSzto1YcGy-63" value="&lt;span style=&quot;text-indent: 24px ; line-height: 140%&quot;&gt;&lt;font style=&quot;font-size: 8px&quot;&gt;ACC_VOLATILE&lt;/font&gt;&lt;br&gt;&lt;/span&gt;" style="text;html=1;align=left;verticalAlign=middle;resizable=0;points=[];autosize=1;" parent="1" vertex="1">
          <mxGeometry x="430.5" y="955" width="98" height="20" as="geometry" />
        </mxCell>
        <mxCell id="3oE3Q5OzXbJSzto1YcGy-64" value="&lt;span style=&quot;text-indent: 24px ; line-height: 140%&quot;&gt;&lt;font style=&quot;font-size: 8px&quot;&gt;ACC_TRANSIENT&lt;/font&gt;&lt;br&gt;&lt;/span&gt;" style="text;html=1;align=left;verticalAlign=middle;resizable=0;points=[];autosize=1;" parent="1" vertex="1">
          <mxGeometry x="371" y="1025" width="110" height="20" as="geometry" />
        </mxCell>
        <mxCell id="3oE3Q5OzXbJSzto1YcGy-65" value="&lt;span style=&quot;text-indent: 24px ; line-height: 140%&quot;&gt;&lt;font style=&quot;font-size: 8px&quot;&gt;ACC_SYNTHETIC&lt;/font&gt;&lt;br&gt;&lt;/span&gt;" style="text;html=1;align=left;verticalAlign=middle;resizable=0;points=[];autosize=1;" parent="1" vertex="1">
          <mxGeometry x="64" y="1025" width="110" height="20" as="geometry" />
        </mxCell>
        <mxCell id="3oE3Q5OzXbJSzto1YcGy-66" value="&lt;span style=&quot;text-indent: 24px ; line-height: 140%&quot;&gt;&lt;font style=&quot;font-size: 8px&quot;&gt;ACC_ENUM&lt;/font&gt;&lt;br&gt;&lt;/span&gt;" style="text;html=1;align=left;verticalAlign=middle;resizable=0;points=[];autosize=1;" parent="1" vertex="1">
          <mxGeometry x="-36" y="1030" width="77" height="20" as="geometry" />
        </mxCell>
        <mxCell id="3oE3Q5OzXbJSzto1YcGy-73" style="edgeStyle=orthogonalEdgeStyle;rounded=0;orthogonalLoop=1;jettySize=auto;html=1;exitX=1;exitY=0.5;exitDx=0;exitDy=0;entryX=0;entryY=0.5;entryDx=0;entryDy=0;" parent="1" source="3oE3Q5OzXbJSzto1YcGy-71" target="3oE3Q5OzXbJSzto1YcGy-72" edge="1">
          <mxGeometry relative="1" as="geometry" />
        </mxCell>
        <mxCell id="3oE3Q5OzXbJSzto1YcGy-71" value="byte" style="rounded=1;whiteSpace=wrap;html=1;fillColor=#d5e8d4;strokeColor=#82b366;" parent="1" vertex="1">
          <mxGeometry x="-52.5" y="1339" width="43" height="23" as="geometry" />
        </mxCell>
        <mxCell id="3oE3Q5OzXbJSzto1YcGy-72" value="B" style="rounded=1;whiteSpace=wrap;html=1;fillColor=#f8cecc;strokeColor=#b85450;" parent="1" vertex="1">
          <mxGeometry x="15.5" y="1339" width="43" height="23" as="geometry" />
        </mxCell>
        <mxCell id="3oE3Q5OzXbJSzto1YcGy-96" style="edgeStyle=orthogonalEdgeStyle;rounded=0;orthogonalLoop=1;jettySize=auto;html=1;exitX=1;exitY=0.5;exitDx=0;exitDy=0;entryX=0;entryY=0.5;entryDx=0;entryDy=0;" parent="1" source="3oE3Q5OzXbJSzto1YcGy-97" target="3oE3Q5OzXbJSzto1YcGy-98" edge="1">
          <mxGeometry relative="1" as="geometry" />
        </mxCell>
        <mxCell id="3oE3Q5OzXbJSzto1YcGy-97" value="char" style="rounded=1;whiteSpace=wrap;html=1;fillColor=#d5e8d4;strokeColor=#82b366;" parent="1" vertex="1">
          <mxGeometry x="-52.5" y="1368" width="43" height="23" as="geometry" />
        </mxCell>
        <mxCell id="3oE3Q5OzXbJSzto1YcGy-98" value="C" style="rounded=1;whiteSpace=wrap;html=1;fillColor=#f8cecc;strokeColor=#b85450;" parent="1" vertex="1">
          <mxGeometry x="15.5" y="1368" width="43" height="23" as="geometry" />
        </mxCell>
        <mxCell id="3oE3Q5OzXbJSzto1YcGy-99" style="edgeStyle=orthogonalEdgeStyle;rounded=0;orthogonalLoop=1;jettySize=auto;html=1;exitX=1;exitY=0.5;exitDx=0;exitDy=0;entryX=0;entryY=0.5;entryDx=0;entryDy=0;" parent="1" source="3oE3Q5OzXbJSzto1YcGy-100" target="3oE3Q5OzXbJSzto1YcGy-101" edge="1">
          <mxGeometry relative="1" as="geometry" />
        </mxCell>
        <mxCell id="3oE3Q5OzXbJSzto1YcGy-100" value="double" style="rounded=1;whiteSpace=wrap;html=1;fillColor=#d5e8d4;strokeColor=#82b366;" parent="1" vertex="1">
          <mxGeometry x="-52.5" y="1398" width="43" height="23" as="geometry" />
        </mxCell>
        <mxCell id="3oE3Q5OzXbJSzto1YcGy-101" value="D" style="rounded=1;whiteSpace=wrap;html=1;fillColor=#f8cecc;strokeColor=#b85450;" parent="1" vertex="1">
          <mxGeometry x="15.5" y="1398" width="43" height="23" as="geometry" />
        </mxCell>
        <mxCell id="3oE3Q5OzXbJSzto1YcGy-102" style="edgeStyle=orthogonalEdgeStyle;rounded=0;orthogonalLoop=1;jettySize=auto;html=1;exitX=1;exitY=0.5;exitDx=0;exitDy=0;entryX=0;entryY=0.5;entryDx=0;entryDy=0;" parent="1" source="3oE3Q5OzXbJSzto1YcGy-103" target="3oE3Q5OzXbJSzto1YcGy-104" edge="1">
          <mxGeometry relative="1" as="geometry" />
        </mxCell>
        <mxCell id="3oE3Q5OzXbJSzto1YcGy-103" value="float" style="rounded=1;whiteSpace=wrap;html=1;fillColor=#d5e8d4;strokeColor=#82b366;" parent="1" vertex="1">
          <mxGeometry x="-52.5" y="1429" width="43" height="23" as="geometry" />
        </mxCell>
        <mxCell id="3oE3Q5OzXbJSzto1YcGy-104" value="F" style="rounded=1;whiteSpace=wrap;html=1;fillColor=#f8cecc;strokeColor=#b85450;" parent="1" vertex="1">
          <mxGeometry x="15.5" y="1429" width="43" height="23" as="geometry" />
        </mxCell>
        <mxCell id="3oE3Q5OzXbJSzto1YcGy-105" style="edgeStyle=orthogonalEdgeStyle;rounded=0;orthogonalLoop=1;jettySize=auto;html=1;exitX=1;exitY=0.5;exitDx=0;exitDy=0;entryX=0;entryY=0.5;entryDx=0;entryDy=0;" parent="1" source="3oE3Q5OzXbJSzto1YcGy-106" target="3oE3Q5OzXbJSzto1YcGy-107" edge="1">
          <mxGeometry relative="1" as="geometry" />
        </mxCell>
        <mxCell id="3oE3Q5OzXbJSzto1YcGy-106" value="int" style="rounded=1;whiteSpace=wrap;html=1;fillColor=#d5e8d4;strokeColor=#82b366;" parent="1" vertex="1">
          <mxGeometry x="-52.5" y="1458" width="43" height="23" as="geometry" />
        </mxCell>
        <mxCell id="3oE3Q5OzXbJSzto1YcGy-107" value="I" style="rounded=1;whiteSpace=wrap;html=1;fillColor=#f8cecc;strokeColor=#b85450;" parent="1" vertex="1">
          <mxGeometry x="15.5" y="1458" width="43" height="23" as="geometry" />
        </mxCell>
        <mxCell id="3oE3Q5OzXbJSzto1YcGy-108" style="edgeStyle=orthogonalEdgeStyle;rounded=0;orthogonalLoop=1;jettySize=auto;html=1;exitX=1;exitY=0.5;exitDx=0;exitDy=0;entryX=0;entryY=0.5;entryDx=0;entryDy=0;" parent="1" source="3oE3Q5OzXbJSzto1YcGy-109" target="3oE3Q5OzXbJSzto1YcGy-110" edge="1">
          <mxGeometry relative="1" as="geometry" />
        </mxCell>
        <mxCell id="3oE3Q5OzXbJSzto1YcGy-109" value="long" style="rounded=1;whiteSpace=wrap;html=1;fillColor=#d5e8d4;strokeColor=#82b366;" parent="1" vertex="1">
          <mxGeometry x="-52.5" y="1486" width="43" height="23" as="geometry" />
        </mxCell>
        <mxCell id="3oE3Q5OzXbJSzto1YcGy-110" value="&lt;b&gt;J&lt;/b&gt;" style="rounded=1;whiteSpace=wrap;html=1;fillColor=#f8cecc;strokeColor=#b85450;" parent="1" vertex="1">
          <mxGeometry x="15.5" y="1486" width="43" height="23" as="geometry" />
        </mxCell>
        <mxCell id="3oE3Q5OzXbJSzto1YcGy-111" style="edgeStyle=orthogonalEdgeStyle;rounded=0;orthogonalLoop=1;jettySize=auto;html=1;exitX=1;exitY=0.5;exitDx=0;exitDy=0;entryX=0;entryY=0.5;entryDx=0;entryDy=0;" parent="1" source="3oE3Q5OzXbJSzto1YcGy-112" target="3oE3Q5OzXbJSzto1YcGy-113" edge="1">
          <mxGeometry relative="1" as="geometry" />
        </mxCell>
        <mxCell id="3oE3Q5OzXbJSzto1YcGy-112" value="short" style="rounded=1;whiteSpace=wrap;html=1;fillColor=#d5e8d4;strokeColor=#82b366;" parent="1" vertex="1">
          <mxGeometry x="-52.5" y="1517" width="43" height="23" as="geometry" />
        </mxCell>
        <mxCell id="3oE3Q5OzXbJSzto1YcGy-113" value="S" style="rounded=1;whiteSpace=wrap;html=1;fillColor=#f8cecc;strokeColor=#b85450;" parent="1" vertex="1">
          <mxGeometry x="15.5" y="1517" width="43" height="23" as="geometry" />
        </mxCell>
        <mxCell id="3oE3Q5OzXbJSzto1YcGy-114" style="edgeStyle=orthogonalEdgeStyle;rounded=0;orthogonalLoop=1;jettySize=auto;html=1;exitX=1;exitY=0.5;exitDx=0;exitDy=0;entryX=0;entryY=0.5;entryDx=0;entryDy=0;" parent="1" source="3oE3Q5OzXbJSzto1YcGy-115" target="3oE3Q5OzXbJSzto1YcGy-116" edge="1">
          <mxGeometry relative="1" as="geometry" />
        </mxCell>
        <mxCell id="3oE3Q5OzXbJSzto1YcGy-115" value="boolean" style="rounded=1;whiteSpace=wrap;html=1;fillColor=#d5e8d4;strokeColor=#82b366;" parent="1" vertex="1">
          <mxGeometry x="-52.5" y="1547" width="43" height="23" as="geometry" />
        </mxCell>
        <mxCell id="3oE3Q5OzXbJSzto1YcGy-116" value="&lt;b&gt;Z&lt;/b&gt;" style="rounded=1;whiteSpace=wrap;html=1;fillColor=#f8cecc;strokeColor=#b85450;" parent="1" vertex="1">
          <mxGeometry x="15.5" y="1547" width="43" height="23" as="geometry" />
        </mxCell>
        <mxCell id="3oE3Q5OzXbJSzto1YcGy-117" value="" style="shape=curlyBracket;whiteSpace=wrap;html=1;rounded=1;align=left;rotation=0;" parent="1" vertex="1">
          <mxGeometry x="-93.5" y="1353" width="33.5" height="207" as="geometry" />
        </mxCell>
        <mxCell id="3oE3Q5OzXbJSzto1YcGy-118" value="基本数据类型" style="text;html=1;align=center;verticalAlign=middle;resizable=0;points=[];autosize=1;" parent="1" vertex="1">
          <mxGeometry x="-180" y="1447.5" width="82" height="18" as="geometry" />
        </mxCell>
        <mxCell id="3oE3Q5OzXbJSzto1YcGy-119" value="无返回值类型" style="text;html=1;align=center;verticalAlign=middle;resizable=0;points=[];autosize=1;" parent="1" vertex="1">
          <mxGeometry x="109" y="1363" width="82" height="18" as="geometry" />
        </mxCell>
        <mxCell id="3oE3Q5OzXbJSzto1YcGy-120" style="edgeStyle=orthogonalEdgeStyle;rounded=0;orthogonalLoop=1;jettySize=auto;html=1;exitX=1;exitY=0.5;exitDx=0;exitDy=0;entryX=0;entryY=0.5;entryDx=0;entryDy=0;" parent="1" source="3oE3Q5OzXbJSzto1YcGy-121" target="3oE3Q5OzXbJSzto1YcGy-122" edge="1">
          <mxGeometry relative="1" as="geometry" />
        </mxCell>
        <mxCell id="3oE3Q5OzXbJSzto1YcGy-121" value="void" style="rounded=1;whiteSpace=wrap;html=1;fillColor=#d5e8d4;strokeColor=#82b366;gradientColor=#97d077;" parent="1" vertex="1">
          <mxGeometry x="204" y="1360.5" width="43" height="23" as="geometry" />
        </mxCell>
        <mxCell id="3oE3Q5OzXbJSzto1YcGy-122" value="&lt;b&gt;V&lt;/b&gt;" style="rounded=1;whiteSpace=wrap;html=1;fillColor=#f8cecc;strokeColor=#b85450;gradientColor=#ea6b66;" parent="1" vertex="1">
          <mxGeometry x="272" y="1360.5" width="43" height="23" as="geometry" />
        </mxCell>
        <mxCell id="3oE3Q5OzXbJSzto1YcGy-123" value="对象类型" style="text;html=1;align=center;verticalAlign=middle;resizable=0;points=[];autosize=1;" parent="1" vertex="1">
          <mxGeometry x="111" y="1429.5" width="58" height="18" as="geometry" />
        </mxCell>
        <mxCell id="3oE3Q5OzXbJSzto1YcGy-127" value="用字符 L 加对象的全限定名&lt;br&gt;如：Ljava/lang/Object;" style="rounded=1;whiteSpace=wrap;html=1;gradientColor=#7ea6e0;fillColor=#dae8fc;strokeColor=#6c8ebf;" parent="1" vertex="1">
          <mxGeometry x="177" y="1419.5" width="172" height="36" as="geometry" />
        </mxCell>
        <mxCell id="3oE3Q5OzXbJSzto1YcGy-128" value="数组类型" style="text;html=1;align=center;verticalAlign=middle;resizable=0;points=[];autosize=1;" parent="1" vertex="1">
          <mxGeometry x="115" y="1514.5" width="58" height="18" as="geometry" />
        </mxCell>
        <mxCell id="3oE3Q5OzXbJSzto1YcGy-129" value="&lt;p style=&quot;line-height: 40%&quot;&gt;每一维度使用一个前置的 “ [ ” 字符描述，如下：&amp;nbsp;&lt;/p&gt;&lt;p style=&quot;line-height: 60%&quot;&gt;&lt;span&gt;int[]：[I&lt;/span&gt;&lt;/p&gt;String[][]：[[Ljava/lang/String;&lt;p&gt;&lt;/p&gt;" style="rounded=1;whiteSpace=wrap;html=1;fillColor=#f9f7ed;strokeColor=#36393d;align=left;" parent="1" vertex="1">
          <mxGeometry x="177" y="1489.5" width="267" height="63" as="geometry" />
        </mxCell>
        <mxCell id="3oE3Q5OzXbJSzto1YcGy-131" value="&lt;font style=&quot;font-size: 18px&quot;&gt;字段的数据类型&lt;/font&gt;" style="text;html=1;align=center;verticalAlign=middle;resizable=0;points=[];autosize=1;" parent="1" vertex="1">
          <mxGeometry x="-201" y="1298" width="136" height="20" as="geometry" />
        </mxCell>
        <mxCell id="3oE3Q5OzXbJSzto1YcGy-132" value="&lt;font style=&quot;font-size: 18px&quot;&gt;方法的参数及返回值&lt;/font&gt;" style="text;html=1;align=center;verticalAlign=middle;resizable=0;points=[];autosize=1;" parent="1" vertex="1">
          <mxGeometry x="-198" y="1602" width="172" height="20" as="geometry" />
        </mxCell>
        <mxCell id="3oE3Q5OzXbJSzto1YcGy-133" value="，&amp;nbsp;" style="text;html=1;align=center;verticalAlign=middle;resizable=0;points=[];autosize=1;" parent="1" vertex="1">
          <mxGeometry x="1102.5" y="1865" width="25" height="18" as="geometry" />
        </mxCell>
        <mxCell id="3oE3Q5OzXbJSzto1YcGy-134" value="按照先参数列表、后返回值的顺序描述&lt;br&gt;&lt;br&gt;参数列表按照参数的严格顺序放在一组小括号内 “ () ”" style="rounded=1;whiteSpace=wrap;html=1;shadow=0;fillColor=#cce5ff;strokeColor=#36393d;" parent="1" vertex="1">
          <mxGeometry x="-189" y="1651" width="298" height="65" as="geometry" />
        </mxCell>
        <mxCell id="3oE3Q5OzXbJSzto1YcGy-136" value="void inc()：()V&lt;br&gt;&lt;br&gt;int log(String name, int[] args)：(Ljava/lang/String;[I)I" style="rounded=1;whiteSpace=wrap;html=1;shadow=0;fillColor=#f9f7ed;strokeColor=#36393d;" parent="1" vertex="1">
          <mxGeometry x="140" y="1654" width="304" height="59" as="geometry" />
        </mxCell>
        <mxCell id="3oE3Q5OzXbJSzto1YcGy-169" value="&lt;span style=&quot;font-size: 18px&quot;&gt;类和接口的访问标志&lt;/span&gt;" style="text;html=1;align=center;verticalAlign=middle;resizable=0;points=[];autosize=1;" parent="1" vertex="1">
          <mxGeometry x="-179" y="285" width="172" height="20" as="geometry" />
        </mxCell>
        <mxCell id="3oE3Q5OzXbJSzto1YcGy-171" value="&lt;span style=&quot;font-size: 18px&quot;&gt;字段的访问标志&lt;/span&gt;" style="text;html=1;align=center;verticalAlign=middle;resizable=0;points=[];autosize=1;" parent="1" vertex="1">
          <mxGeometry x="-197" y="946" width="136" height="20" as="geometry" />
        </mxCell>
        <mxCell id="3oE3Q5OzXbJSzto1YcGy-173" value="" style="rounded=0;whiteSpace=wrap;html=1;shadow=0;" parent="1" vertex="1">
          <mxGeometry x="-199" y="1072" width="1201" height="167" as="geometry" />
        </mxCell>
        <mxCell id="3oE3Q5OzXbJSzto1YcGy-174" value="" style="shape=table;html=1;whiteSpace=wrap;startSize=0;container=1;collapsible=0;childLayout=tableLayout;fillColor=#ffe6cc;strokeColor=#d79b00;" parent="1" vertex="1">
          <mxGeometry x="390" y="1156" width="480" height="40" as="geometry" />
        </mxCell>
        <mxCell id="3oE3Q5OzXbJSzto1YcGy-175" value="" style="shape=partialRectangle;html=1;whiteSpace=wrap;collapsible=0;dropTarget=0;pointerEvents=0;fillColor=none;top=0;left=0;bottom=0;right=0;points=[[0,0.5],[1,0.5]];portConstraint=eastwest;" parent="3oE3Q5OzXbJSzto1YcGy-174" vertex="1">
          <mxGeometry width="480" height="40" as="geometry" />
        </mxCell>
        <mxCell id="3oE3Q5OzXbJSzto1YcGy-176" value="&lt;span&gt;0x0080&lt;/span&gt;" style="shape=partialRectangle;html=1;whiteSpace=wrap;connectable=0;overflow=hidden;fillColor=none;top=0;left=0;bottom=0;right=0;" parent="3oE3Q5OzXbJSzto1YcGy-175" vertex="1">
          <mxGeometry width="60" height="40" as="geometry" />
        </mxCell>
        <mxCell id="3oE3Q5OzXbJSzto1YcGy-177" value="&lt;span&gt;0x0040&lt;/span&gt;" style="shape=partialRectangle;html=1;whiteSpace=wrap;connectable=0;overflow=hidden;fillColor=none;top=0;left=0;bottom=0;right=0;" parent="3oE3Q5OzXbJSzto1YcGy-175" vertex="1">
          <mxGeometry x="60" width="60" height="40" as="geometry" />
        </mxCell>
        <mxCell id="3oE3Q5OzXbJSzto1YcGy-178" value="&lt;span&gt;0x0020&lt;/span&gt;" style="shape=partialRectangle;html=1;whiteSpace=wrap;connectable=0;overflow=hidden;fillColor=none;top=0;left=0;bottom=0;right=0;" parent="3oE3Q5OzXbJSzto1YcGy-175" vertex="1">
          <mxGeometry x="120" width="60" height="40" as="geometry" />
        </mxCell>
        <mxCell id="3oE3Q5OzXbJSzto1YcGy-179" value="&lt;span&gt;0x0010&lt;/span&gt;" style="shape=partialRectangle;html=1;whiteSpace=wrap;connectable=0;overflow=hidden;fillColor=none;top=0;left=0;bottom=0;right=0;" parent="3oE3Q5OzXbJSzto1YcGy-175" vertex="1">
          <mxGeometry x="180" width="60" height="40" as="geometry" />
        </mxCell>
        <mxCell id="3oE3Q5OzXbJSzto1YcGy-180" value="&lt;span&gt;0x0008&lt;/span&gt;" style="shape=partialRectangle;html=1;whiteSpace=wrap;connectable=0;overflow=hidden;fillColor=none;top=0;left=0;bottom=0;right=0;" parent="3oE3Q5OzXbJSzto1YcGy-175" vertex="1">
          <mxGeometry x="240" width="60" height="40" as="geometry" />
        </mxCell>
        <mxCell id="3oE3Q5OzXbJSzto1YcGy-181" value="&lt;span&gt;0x0004&lt;/span&gt;" style="shape=partialRectangle;html=1;whiteSpace=wrap;connectable=0;overflow=hidden;fillColor=none;top=0;left=0;bottom=0;right=0;" parent="3oE3Q5OzXbJSzto1YcGy-175" vertex="1">
          <mxGeometry x="300" width="60" height="40" as="geometry" />
        </mxCell>
        <mxCell id="3oE3Q5OzXbJSzto1YcGy-182" value="&lt;span&gt;0x0002&lt;/span&gt;" style="shape=partialRectangle;html=1;whiteSpace=wrap;connectable=0;overflow=hidden;fillColor=none;top=0;left=0;bottom=0;right=0;" parent="3oE3Q5OzXbJSzto1YcGy-175" vertex="1">
          <mxGeometry x="360" width="60" height="40" as="geometry" />
        </mxCell>
        <mxCell id="3oE3Q5OzXbJSzto1YcGy-183" value="&lt;span&gt;0x0001&lt;/span&gt;" style="shape=partialRectangle;html=1;whiteSpace=wrap;connectable=0;overflow=hidden;fillColor=none;top=0;left=0;bottom=0;right=0;" parent="3oE3Q5OzXbJSzto1YcGy-175" vertex="1">
          <mxGeometry x="420" width="60" height="40" as="geometry" />
        </mxCell>
        <mxCell id="3oE3Q5OzXbJSzto1YcGy-184" value="" style="shape=table;html=1;whiteSpace=wrap;startSize=0;container=1;collapsible=0;childLayout=tableLayout;fillColor=#dae8fc;strokeColor=#6c8ebf;" parent="1" vertex="1">
          <mxGeometry x="-90" y="1156" width="480" height="40" as="geometry" />
        </mxCell>
        <mxCell id="3oE3Q5OzXbJSzto1YcGy-185" value="" style="shape=partialRectangle;html=1;whiteSpace=wrap;collapsible=0;dropTarget=0;pointerEvents=0;fillColor=none;top=0;left=0;bottom=0;right=0;points=[[0,0.5],[1,0.5]];portConstraint=eastwest;" parent="3oE3Q5OzXbJSzto1YcGy-184" vertex="1">
          <mxGeometry width="480" height="40" as="geometry" />
        </mxCell>
        <mxCell id="3oE3Q5OzXbJSzto1YcGy-186" value="" style="shape=partialRectangle;html=1;whiteSpace=wrap;connectable=0;overflow=hidden;fillColor=none;top=0;left=0;bottom=0;right=0;" parent="3oE3Q5OzXbJSzto1YcGy-185" vertex="1">
          <mxGeometry width="60" height="40" as="geometry" />
        </mxCell>
        <mxCell id="3oE3Q5OzXbJSzto1YcGy-187" value="" style="shape=partialRectangle;html=1;whiteSpace=wrap;connectable=0;overflow=hidden;fillColor=none;top=0;left=0;bottom=0;right=0;" parent="3oE3Q5OzXbJSzto1YcGy-185" vertex="1">
          <mxGeometry x="60" width="60" height="40" as="geometry" />
        </mxCell>
        <mxCell id="3oE3Q5OzXbJSzto1YcGy-188" value="" style="shape=partialRectangle;html=1;whiteSpace=wrap;connectable=0;overflow=hidden;fillColor=none;top=0;left=0;bottom=0;right=0;" parent="3oE3Q5OzXbJSzto1YcGy-185" vertex="1">
          <mxGeometry x="120" width="60" height="40" as="geometry" />
        </mxCell>
        <mxCell id="3oE3Q5OzXbJSzto1YcGy-189" value="&lt;span&gt;0x1000&lt;/span&gt;" style="shape=partialRectangle;html=1;whiteSpace=wrap;connectable=0;overflow=hidden;fillColor=none;top=0;left=0;bottom=0;right=0;" parent="3oE3Q5OzXbJSzto1YcGy-185" vertex="1">
          <mxGeometry x="180" width="60" height="40" as="geometry" />
        </mxCell>
        <mxCell id="3oE3Q5OzXbJSzto1YcGy-190" value="0X0800" style="shape=partialRectangle;html=1;whiteSpace=wrap;connectable=0;overflow=hidden;fillColor=none;top=0;left=0;bottom=0;right=0;" parent="3oE3Q5OzXbJSzto1YcGy-185" vertex="1">
          <mxGeometry x="240" width="60" height="40" as="geometry" />
        </mxCell>
        <mxCell id="3oE3Q5OzXbJSzto1YcGy-191" value="&lt;span&gt;0x0400&lt;/span&gt;" style="shape=partialRectangle;html=1;whiteSpace=wrap;connectable=0;overflow=hidden;fillColor=none;top=0;left=0;bottom=0;right=0;" parent="3oE3Q5OzXbJSzto1YcGy-185" vertex="1">
          <mxGeometry x="300" width="60" height="40" as="geometry" />
        </mxCell>
        <mxCell id="3oE3Q5OzXbJSzto1YcGy-192" value="" style="shape=partialRectangle;html=1;whiteSpace=wrap;connectable=0;overflow=hidden;fillColor=none;top=0;left=0;bottom=0;right=0;" parent="3oE3Q5OzXbJSzto1YcGy-185" vertex="1">
          <mxGeometry x="360" width="60" height="40" as="geometry" />
        </mxCell>
        <mxCell id="3oE3Q5OzXbJSzto1YcGy-193" value="0x0100" style="shape=partialRectangle;html=1;whiteSpace=wrap;connectable=0;overflow=hidden;fillColor=none;top=0;left=0;bottom=0;right=0;" parent="3oE3Q5OzXbJSzto1YcGy-185" vertex="1">
          <mxGeometry x="420" width="60" height="40" as="geometry" />
        </mxCell>
        <mxCell id="3oE3Q5OzXbJSzto1YcGy-194" value="&lt;span style=&quot;text-indent: 24px ; line-height: 140%&quot;&gt;&lt;font style=&quot;font-size: 8px&quot;&gt;ACC_PUBLIC&lt;/font&gt;&lt;br&gt;&lt;/span&gt;" style="text;html=1;align=left;verticalAlign=middle;resizable=0;points=[];autosize=1;" parent="1" vertex="1">
          <mxGeometry x="801.5" y="1200" width="85" height="20" as="geometry" />
        </mxCell>
        <mxCell id="3oE3Q5OzXbJSzto1YcGy-195" value="&lt;span style=&quot;text-indent: 24px ; line-height: 140%&quot;&gt;&lt;font style=&quot;font-size: 8px&quot;&gt;ACC_PRIVATE&lt;/font&gt;&lt;br&gt;&lt;/span&gt;" style="text;html=1;align=left;verticalAlign=middle;resizable=0;points=[];autosize=1;" parent="1" vertex="1">
          <mxGeometry x="738.5" y="1130" width="92" height="20" as="geometry" />
        </mxCell>
        <mxCell id="3oE3Q5OzXbJSzto1YcGy-196" value="&lt;span style=&quot;text-indent: 24px ; line-height: 140%&quot;&gt;&lt;font style=&quot;font-size: 8px&quot;&gt;ACC_PROTECTED&lt;/font&gt;&lt;br&gt;&lt;/span&gt;" style="text;html=1;align=left;verticalAlign=middle;resizable=0;points=[];autosize=1;" parent="1" vertex="1">
          <mxGeometry x="665.5" y="1200" width="116" height="20" as="geometry" />
        </mxCell>
        <mxCell id="3oE3Q5OzXbJSzto1YcGy-197" value="&lt;span style=&quot;text-indent: 24px ; line-height: 140%&quot;&gt;&lt;font style=&quot;font-size: 8px&quot;&gt;ACC_STATIC&lt;/font&gt;&lt;br&gt;&lt;/span&gt;" style="text;html=1;align=left;verticalAlign=middle;resizable=0;points=[];autosize=1;" parent="1" vertex="1">
          <mxGeometry x="617.5" y="1130" width="83" height="20" as="geometry" />
        </mxCell>
        <mxCell id="3oE3Q5OzXbJSzto1YcGy-198" value="&lt;span style=&quot;text-indent: 24px ; line-height: 140%&quot;&gt;&lt;font style=&quot;font-size: 8px&quot;&gt;ACC_FINAL&lt;/font&gt;&lt;br&gt;&lt;/span&gt;" style="text;html=1;align=left;verticalAlign=middle;resizable=0;points=[];autosize=1;" parent="1" vertex="1">
          <mxGeometry x="569" y="1200" width="76" height="20" as="geometry" />
        </mxCell>
        <mxCell id="3oE3Q5OzXbJSzto1YcGy-199" value="&lt;span style=&quot;text-indent: 24px ; line-height: 140%&quot;&gt;&lt;font style=&quot;font-size: 8px&quot;&gt;ACC_BRIDGE&lt;/font&gt;&lt;br&gt;&lt;/span&gt;" style="text;html=1;align=left;verticalAlign=middle;resizable=0;points=[];autosize=1;" parent="1" vertex="1">
          <mxGeometry x="441.5" y="1200" width="88" height="20" as="geometry" />
        </mxCell>
        <mxCell id="3oE3Q5OzXbJSzto1YcGy-200" value="&lt;span style=&quot;text-indent: 24px ; line-height: 140%&quot;&gt;&lt;font style=&quot;font-size: 8px&quot;&gt;ACC_VARARGS&lt;br&gt;&lt;/font&gt;是否接受不定参数&lt;br&gt;&lt;/span&gt;" style="text;html=1;align=left;verticalAlign=middle;resizable=0;points=[];autosize=1;" parent="1" vertex="1">
          <mxGeometry x="365.5" y="1117" width="106" height="36" as="geometry" />
        </mxCell>
        <mxCell id="3oE3Q5OzXbJSzto1YcGy-201" value="&lt;span style=&quot;text-indent: 24px ; line-height: 140%&quot;&gt;&lt;font style=&quot;font-size: 8px&quot;&gt;ACC_SYNTHETIC&lt;/font&gt;&lt;br&gt;&lt;/span&gt;" style="text;html=1;align=left;verticalAlign=middle;resizable=0;points=[];autosize=1;" parent="1" vertex="1">
          <mxGeometry x="65" y="1200" width="110" height="20" as="geometry" />
        </mxCell>
        <mxCell id="3oE3Q5OzXbJSzto1YcGy-203" value="&lt;span style=&quot;font-size: 18px&quot;&gt;方法的访问标志&lt;/span&gt;" style="text;html=1;align=center;verticalAlign=middle;resizable=0;points=[];autosize=1;" parent="1" vertex="1">
          <mxGeometry x="-196" y="1075" width="136" height="20" as="geometry" />
        </mxCell>
        <mxCell id="3oE3Q5OzXbJSzto1YcGy-204" value="&lt;span style=&quot;background-color: rgb(151 , 208 , 119)&quot;&gt;01:字段表计数;02:访问标志;07:简单名称，常量池第7项；08:描述符，第8项;00:属性表计数&lt;/span&gt;" style="text;html=1;align=center;verticalAlign=middle;resizable=0;points=[];autosize=1;fontSize=12;fontFamily=Verdana;" parent="1" vertex="1">
          <mxGeometry x="824" y="2325" width="517" height="18" as="geometry" />
        </mxCell>
        <mxCell id="3oE3Q5OzXbJSzto1YcGy-205" value="&lt;span style=&quot;line-height: 150%&quot;&gt;&lt;span style=&quot;background-color: rgb(255 , 217 , 102)&quot;&gt;02:方法表计数;01:访问标志;09:名称，常量池第9项；0A:描述符，第10项;01:属性表计数器;0B:属性名，指向常量第11项;&lt;/span&gt;&lt;font color=&quot;#ff00ff&quot; style=&quot;background-color: rgb(255 , 217 , 102)&quot;&gt;2F:属性值长度;&lt;/font&gt;&lt;br&gt;&lt;span style=&quot;background-color: rgb(255 , 217 , 102)&quot;&gt;01:操作数栈最大深度;01:局部变量表所需存储空间;&lt;/span&gt;&lt;span style=&quot;color: rgb(255 , 0 , 128) ; background-color: rgb(255 , 217 , 102)&quot;&gt;05:字节码长度;&lt;/span&gt;&lt;span style=&quot;background-color: rgb(255 , 217 , 102)&quot;&gt;&lt;font color=&quot;#6600cc&quot;&gt;5个字节码对应5条指令;&lt;/font&gt;00:异常表个数;02:属性表个数(方法表中第一个属性的子属性);&lt;br&gt;0C:属性名，指向常量池第12项(LineNumberTable);06:属性长度;01:line_number_table 类型的个数;&lt;font color=&quot;#cc0000&quot;&gt;00:start_pc 字节码行号&lt;/font&gt;;03:java 源码行号;&lt;br&gt;&lt;font color=&quot;#ff0080&quot;&gt;0D:属性名&lt;/font&gt;，指向常量池第13项(LocalVariableTable);0C:属性长度;01:local_variable_table 类型个数;00:start_pc;05:length;&lt;br&gt;0E:局部变量名称，常量池索引(this);0F:局部变量描述符，常量池索引;&lt;font color=&quot;#cc0066&quot;&gt;00:槽在变量表中的位置;(至此，第一个方法表的唯一个属性Code结束)&lt;br&gt;&lt;/font&gt;&lt;font color=&quot;#0000ff&quot;&gt;&lt;b&gt;01:访问标志;&lt;/b&gt;&lt;/font&gt;10:方法名称(talk)......剩下的是另一个方法的开始，省略。&lt;br&gt;&lt;/span&gt;&lt;/span&gt;" style="text;html=1;align=left;verticalAlign=middle;resizable=0;points=[];autosize=1;fontSize=12;fontFamily=Verdana;" parent="1" vertex="1">
          <mxGeometry x="540.5" y="2345" width="844" height="112" as="geometry" />
        </mxCell>
        <mxCell id="3oE3Q5OzXbJSzto1YcGy-206" value="&lt;span style=&quot;text-indent: 24px ; line-height: 140%&quot;&gt;&lt;font style=&quot;font-size: 8px&quot;&gt;ACC_SYNCHRONIZED&lt;/font&gt;&lt;br&gt;&lt;/span&gt;" style="text;html=1;align=left;verticalAlign=middle;resizable=0;points=[];autosize=1;" parent="1" vertex="1">
          <mxGeometry x="471.5" y="1130" width="138" height="20" as="geometry" />
        </mxCell>
        <mxCell id="3oE3Q5OzXbJSzto1YcGy-207" value="&lt;span style=&quot;text-indent: 24px ; line-height: 140%&quot;&gt;&lt;font style=&quot;font-size: 8px&quot;&gt;ACC_NATIVE&lt;/font&gt;&lt;br&gt;&lt;/span&gt;" style="text;html=1;align=left;verticalAlign=middle;resizable=0;points=[];autosize=1;" parent="1" vertex="1">
          <mxGeometry x="324" y="1202" width="84" height="20" as="geometry" />
        </mxCell>
        <mxCell id="3oE3Q5OzXbJSzto1YcGy-208" value="&lt;span style=&quot;text-indent: 24px ; line-height: 140%&quot;&gt;&lt;font style=&quot;font-size: 8px&quot;&gt;ACC_ABSTRACT&lt;/font&gt;&lt;br&gt;&lt;/span&gt;" style="text;html=1;align=left;verticalAlign=middle;resizable=0;points=[];autosize=1;" parent="1" vertex="1">
          <mxGeometry x="182" y="1202" width="106" height="20" as="geometry" />
        </mxCell>
        <mxCell id="3oE3Q5OzXbJSzto1YcGy-209" value="&lt;div style=&quot;text-align: center&quot;&gt;&lt;span style=&quot;font-size: 8px ; text-indent: 24px&quot;&gt;ACC_STRICT&lt;/span&gt;&lt;/div&gt;&lt;span style=&quot;text-indent: 24px ; line-height: 140%&quot;&gt;&lt;div style=&quot;text-align: center&quot;&gt;&lt;span&gt;strictfp：精确浮点&lt;/span&gt;&lt;/div&gt;&lt;div style=&quot;text-align: center&quot;&gt;&lt;span&gt;一旦使用该关键字来声明类、接口、非抽象方法时&lt;/span&gt;&lt;/div&gt;&lt;div style=&quot;text-align: center&quot;&gt;&lt;span&gt;对应范围内的浮点运算都是精确的&lt;/span&gt;&lt;/div&gt;&lt;/span&gt;" style="text;html=1;align=left;verticalAlign=middle;resizable=0;points=[];autosize=1;" parent="1" vertex="1">
          <mxGeometry x="34.5" y="1087" width="298" height="66" as="geometry" />
        </mxCell>
        <mxCell id="79U6oAVhSohHidV2ZCr--2" value="" style="endArrow=classic;html=1;entryX=0.63;entryY=0.76;entryDx=0;entryDy=0;entryPerimeter=0;fillColor=#FF0080;strokeColor=#FF0080;" parent="1" target="31JTc4GcEN89d1lP_IlO-4" edge="1">
          <mxGeometry width="50" height="50" relative="1" as="geometry">
            <mxPoint x="542.5" y="2450" as="sourcePoint" />
            <mxPoint x="476.5" y="2413" as="targetPoint" />
          </mxGeometry>
        </mxCell>
        <mxCell id="jA1Smjy7X45bf1YUAU8x-1" value="" style="shape=table;html=1;whiteSpace=wrap;startSize=0;container=1;collapsible=0;childLayout=tableLayout;fillColor=#ffe6cc;strokeColor=#d79b00;" parent="1" vertex="1">
          <mxGeometry x="244" y="3016" width="60" height="160" as="geometry" />
        </mxCell>
        <mxCell id="jA1Smjy7X45bf1YUAU8x-2" value="" style="shape=partialRectangle;html=1;whiteSpace=wrap;collapsible=0;dropTarget=0;pointerEvents=0;fillColor=none;top=0;left=0;bottom=0;right=0;points=[[0,0.5],[1,0.5]];portConstraint=eastwest;" parent="jA1Smjy7X45bf1YUAU8x-1" vertex="1">
          <mxGeometry width="60" height="40" as="geometry" />
        </mxCell>
        <mxCell id="jA1Smjy7X45bf1YUAU8x-3" value="" style="shape=partialRectangle;html=1;whiteSpace=wrap;connectable=0;overflow=hidden;fillColor=none;top=0;left=0;bottom=0;right=0;" parent="jA1Smjy7X45bf1YUAU8x-2" vertex="1">
          <mxGeometry width="60" height="40" as="geometry" />
        </mxCell>
        <mxCell id="jA1Smjy7X45bf1YUAU8x-4" value="" style="shape=partialRectangle;html=1;whiteSpace=wrap;collapsible=0;dropTarget=0;pointerEvents=0;fillColor=none;top=0;left=0;bottom=0;right=0;points=[[0,0.5],[1,0.5]];portConstraint=eastwest;" parent="jA1Smjy7X45bf1YUAU8x-1" vertex="1">
          <mxGeometry y="40" width="60" height="40" as="geometry" />
        </mxCell>
        <mxCell id="jA1Smjy7X45bf1YUAU8x-5" value="" style="shape=partialRectangle;html=1;whiteSpace=wrap;connectable=0;overflow=hidden;fillColor=none;top=0;left=0;bottom=0;right=0;" parent="jA1Smjy7X45bf1YUAU8x-4" vertex="1">
          <mxGeometry width="60" height="40" as="geometry" />
        </mxCell>
        <mxCell id="jA1Smjy7X45bf1YUAU8x-6" value="" style="shape=partialRectangle;html=1;whiteSpace=wrap;collapsible=0;dropTarget=0;pointerEvents=0;fillColor=none;top=0;left=0;bottom=0;right=0;points=[[0,0.5],[1,0.5]];portConstraint=eastwest;" parent="jA1Smjy7X45bf1YUAU8x-1" vertex="1">
          <mxGeometry y="80" width="60" height="40" as="geometry" />
        </mxCell>
        <mxCell id="jA1Smjy7X45bf1YUAU8x-7" value="" style="shape=partialRectangle;html=1;whiteSpace=wrap;connectable=0;overflow=hidden;fillColor=none;top=0;left=0;bottom=0;right=0;" parent="jA1Smjy7X45bf1YUAU8x-6" vertex="1">
          <mxGeometry width="60" height="40" as="geometry" />
        </mxCell>
        <mxCell id="jA1Smjy7X45bf1YUAU8x-8" value="" style="shape=partialRectangle;html=1;whiteSpace=wrap;collapsible=0;dropTarget=0;pointerEvents=0;fillColor=none;top=0;left=0;bottom=0;right=0;points=[[0,0.5],[1,0.5]];portConstraint=eastwest;" parent="jA1Smjy7X45bf1YUAU8x-1" vertex="1">
          <mxGeometry y="120" width="60" height="40" as="geometry" />
        </mxCell>
        <mxCell id="jA1Smjy7X45bf1YUAU8x-9" value="" style="shape=partialRectangle;html=1;whiteSpace=wrap;connectable=0;overflow=hidden;fillColor=none;top=0;left=0;bottom=0;right=0;" parent="jA1Smjy7X45bf1YUAU8x-8" vertex="1">
          <mxGeometry width="60" height="40" as="geometry" />
        </mxCell>
        <mxCell id="jA1Smjy7X45bf1YUAU8x-57" style="rounded=0;orthogonalLoop=1;jettySize=auto;html=1;exitX=0.5;exitY=1;exitDx=0;exitDy=0;entryX=0.25;entryY=0;entryDx=0;entryDy=0;" parent="1" source="jA1Smjy7X45bf1YUAU8x-15" target="jA1Smjy7X45bf1YUAU8x-45" edge="1">
          <mxGeometry relative="1" as="geometry" />
        </mxCell>
        <mxCell id="jA1Smjy7X45bf1YUAU8x-15" value="&lt;b&gt;&lt;font style=&quot;font-size: 14px&quot;&gt;invokedynamic&amp;nbsp;&lt;/font&gt;&lt;/b&gt;" style="rounded=1;whiteSpace=wrap;html=1;fillColor=#f8cecc;strokeColor=#b85450;" parent="1" vertex="1">
          <mxGeometry x="-135" y="2870" width="140" height="33" as="geometry" />
        </mxCell>
        <mxCell id="jA1Smjy7X45bf1YUAU8x-32" value="" style="shape=curlyBracket;whiteSpace=wrap;html=1;rounded=1;" parent="1" vertex="1">
          <mxGeometry x="-282" y="3023" width="16" height="153" as="geometry" />
        </mxCell>
        <mxCell id="jA1Smjy7X45bf1YUAU8x-35" value="&lt;p style=&quot;line-height: 150%&quot;&gt;u2&amp;nbsp; 常量池索引&lt;br&gt;结构为 CONSTANT_NameAndType_info&lt;br&gt;表示方法名和方法描述符&lt;/p&gt;" style="text;html=1;align=left;verticalAlign=middle;resizable=0;points=[];autosize=1;" parent="1" vertex="1">
          <mxGeometry x="-103" y="3120" width="227" height="82" as="geometry" />
        </mxCell>
        <mxCell id="jA1Smjy7X45bf1YUAU8x-39" value="name_and_type_index" style="rounded=1;whiteSpace=wrap;html=1;fillColor=#d5e8d4;strokeColor=#82b366;" parent="1" vertex="1">
          <mxGeometry x="-266" y="3152" width="142" height="18" as="geometry" />
        </mxCell>
        <mxCell id="jA1Smjy7X45bf1YUAU8x-40" value="bootstrap_method_attr_index" style="rounded=1;whiteSpace=wrap;html=1;fillColor=#d5e8d4;strokeColor=#82b366;" parent="1" vertex="1">
          <mxGeometry x="-266" y="3089.5" width="163" height="20" as="geometry" />
        </mxCell>
        <mxCell id="jA1Smjy7X45bf1YUAU8x-41" value="tag" style="rounded=1;whiteSpace=wrap;html=1;fillColor=#d5e8d4;strokeColor=#82b366;" parent="1" vertex="1">
          <mxGeometry x="-266" y="3032" width="36" height="18" as="geometry" />
        </mxCell>
        <mxCell id="jA1Smjy7X45bf1YUAU8x-42" value="u2&amp;nbsp; &amp;nbsp; bootstrap_methods[] 数组有效索引" style="text;html=1;align=center;verticalAlign=middle;resizable=0;points=[];autosize=1;" parent="1" vertex="1">
          <mxGeometry x="-87" y="3090.5" width="221" height="18" as="geometry" />
        </mxCell>
        <mxCell id="jA1Smjy7X45bf1YUAU8x-43" value="u1&amp;nbsp; &amp;nbsp;值为18" style="text;html=1;align=center;verticalAlign=middle;resizable=0;points=[];autosize=1;" parent="1" vertex="1">
          <mxGeometry x="-213.12" y="3032" width="71" height="18" as="geometry" />
        </mxCell>
        <mxCell id="jA1Smjy7X45bf1YUAU8x-44" value="&lt;span&gt;&lt;b&gt;&lt;font style=&quot;font-size: 14px&quot;&gt;CONSTANT_InvokeDynamic_info&lt;/font&gt;&lt;/b&gt;&lt;/span&gt;" style="text;html=1;align=center;verticalAlign=middle;resizable=0;points=[];autosize=1;" parent="1" vertex="1">
          <mxGeometry x="-304" y="2978" width="231" height="19" as="geometry" />
        </mxCell>
        <mxCell id="jA1Smjy7X45bf1YUAU8x-46" value="bootstrap_methods" style="text;html=1;align=center;verticalAlign=middle;resizable=0;points=[];autosize=1;" parent="1" vertex="1">
          <mxGeometry x="218.5" y="3185" width="113" height="18" as="geometry" />
        </mxCell>
        <mxCell id="jA1Smjy7X45bf1YUAU8x-47" value="" style="shape=curlyBracket;whiteSpace=wrap;html=1;rounded=1;" parent="1" vertex="1">
          <mxGeometry x="308" y="2996" width="16" height="80" as="geometry" />
        </mxCell>
        <mxCell id="jA1Smjy7X45bf1YUAU8x-48" value="name_and_type_index" style="rounded=1;whiteSpace=wrap;html=1;fillColor=#d5e8d4;strokeColor=#82b366;" parent="1" vertex="1">
          <mxGeometry x="326" y="3004" width="142" height="18" as="geometry" />
        </mxCell>
        <mxCell id="jA1Smjy7X45bf1YUAU8x-49" value="&lt;p style=&quot;line-height: 150%&quot;&gt;u2&amp;nbsp; 常量池索引&lt;br&gt;结构为 CONSTANT_&lt;font color=&quot;#ff1239&quot;&gt;MethodHandle&lt;/font&gt;_info，代表一个&lt;b&gt;引导方法&lt;/b&gt;&lt;br&gt;&lt;/p&gt;" style="text;html=1;align=left;verticalAlign=middle;resizable=0;points=[];autosize=1;" parent="1" vertex="1">
          <mxGeometry x="489" y="2981" width="333" height="64" as="geometry" />
        </mxCell>
        <mxCell id="jA1Smjy7X45bf1YUAU8x-50" value="bootstrap_arguments[]" style="rounded=1;whiteSpace=wrap;html=1;fillColor=#d5e8d4;strokeColor=#82b366;" parent="1" vertex="1">
          <mxGeometry x="326" y="3046" width="142" height="18" as="geometry" />
        </mxCell>
        <mxCell id="jA1Smjy7X45bf1YUAU8x-52" value="数组每个元素都是一个常量池索引，结构为以下类型之一：&lt;br&gt;String、Class、Integer、Long、Float、Double、MethodHandle、MethodType" style="text;html=1;align=center;verticalAlign=middle;resizable=0;points=[];autosize=1;" parent="1" vertex="1">
          <mxGeometry x="475.5" y="3039" width="428" height="32" as="geometry" />
        </mxCell>
        <mxCell id="jA1Smjy7X45bf1YUAU8x-53" value="" style="endArrow=classic;html=1;exitX=1.014;exitY=0.75;exitDx=0;exitDy=0;exitPerimeter=0;entryX=-0.067;entryY=0.75;entryDx=0;entryDy=0;entryPerimeter=0;" parent="1" source="jA1Smjy7X45bf1YUAU8x-42" target="jA1Smjy7X45bf1YUAU8x-2" edge="1">
          <mxGeometry width="50" height="50" relative="1" as="geometry">
            <mxPoint x="183" y="3117" as="sourcePoint" />
            <mxPoint x="233" y="3067" as="targetPoint" />
          </mxGeometry>
        </mxCell>
        <mxCell id="jA1Smjy7X45bf1YUAU8x-55" value="&lt;span&gt;&lt;b&gt;&lt;font style=&quot;font-size: 14px&quot;&gt;BootstrapMethods 属性&lt;/font&gt;&lt;/b&gt;&lt;/span&gt;" style="text;html=1;align=center;verticalAlign=middle;resizable=0;points=[];autosize=1;" parent="1" vertex="1">
          <mxGeometry x="198.5" y="2964" width="166" height="19" as="geometry" />
        </mxCell>
        <mxCell id="jA1Smjy7X45bf1YUAU8x-56" value="即使 CONSTANT_InvokeDynamic_info 类型的常量在常量池中出现多次，类文件的属性表中最多也只能有一个 BootstrapMethods 属性&lt;br&gt;" style="text;html=1;align=center;verticalAlign=middle;resizable=0;points=[];autosize=1;" parent="1" vertex="1">
          <mxGeometry x="-126" y="3240" width="721" height="18" as="geometry" />
        </mxCell>
        <mxCell id="jA1Smjy7X45bf1YUAU8x-58" value="指令的第一个参数类型" style="text;html=1;align=center;verticalAlign=middle;resizable=0;points=[];autosize=1;" parent="1" vertex="1">
          <mxGeometry x="-123" y="2932" width="130" height="18" as="geometry" />
        </mxCell>
        <mxCell id="oWNpcgAgKcHO68uNs4Gi-1" value="" style="shape=curlyBracket;whiteSpace=wrap;html=1;rounded=1;" vertex="1" parent="1">
          <mxGeometry x="576" y="3094" width="20" height="90" as="geometry" />
        </mxCell>
        <mxCell id="oWNpcgAgKcHO68uNs4Gi-2" value="&lt;b&gt;&lt;span style=&quot;text-align: left&quot;&gt;CONSTANT_&lt;/span&gt;&lt;font style=&quot;text-align: left&quot;&gt;MethodHandle&lt;/font&gt;&lt;span style=&quot;text-align: left&quot;&gt;_info&lt;/span&gt;&lt;/b&gt;" style="text;html=1;align=center;verticalAlign=middle;resizable=0;points=[];autosize=1;" vertex="1" parent="1">
          <mxGeometry x="386" y="3130" width="194" height="18" as="geometry" />
        </mxCell>
        <mxCell id="oWNpcgAgKcHO68uNs4Gi-4" value="tag：15" style="text;html=1;align=center;verticalAlign=middle;resizable=0;points=[];autosize=1;" vertex="1" parent="1">
          <mxGeometry x="589" y="3098" width="52" height="18" as="geometry" />
        </mxCell>
        <mxCell id="oWNpcgAgKcHO68uNs4Gi-5" value="reference_kind：取值 1~9，代表方法句柄的类型" style="text;html=1;align=center;verticalAlign=middle;resizable=0;points=[];autosize=1;" vertex="1" parent="1">
          <mxGeometry x="587" y="3130" width="269" height="18" as="geometry" />
        </mxCell>
        <mxCell id="oWNpcgAgKcHO68uNs4Gi-6" value="reference_index：根据 reference_kind 不同的值" style="text;html=1;align=center;verticalAlign=middle;resizable=0;points=[];autosize=1;" vertex="1" parent="1">
          <mxGeometry x="589" y="3162" width="266" height="18" as="geometry" />
        </mxCell>
        <mxCell id="oWNpcgAgKcHO68uNs4Gi-8" value="指向常量池不同类型的索引" style="text;html=1;align=center;verticalAlign=middle;resizable=0;points=[];autosize=1;" vertex="1" parent="1">
          <mxGeometry x="686" y="3180" width="154" height="18" as="geometry" />
        </mxCell>
      </root>
    </mxGraphModel>
  </diagram>
</mxfile>
